<svg width="26" height="20" viewBox="0 0 26 20" fill="none" xmlns="http://www.w3.org/2000/svg">
<path d="M0 2.22206C0 0.994848 0.994849 0 2.22206 0H23.7779C25.0052 0 26 0.994848 26 2.22206C26 3.44926 25.0052 4.44411 23.7779 4.44411H2.22205C0.994847 4.44411 0 3.44926 0 2.22206Z" fill="#054D67"/>
<path d="M0 10.0014C0 8.7742 0.994849 7.77936 2.22206 7.77936H23.7779C25.0052 7.77936 26 8.7742 26 10.0014C26 11.2286 25.0052 12.2235 23.7779 12.2235H2.22205C0.994847 12.2235 0 11.2286 0 10.0014Z" fill="#054D67"/>
<path d="M0 17.7767C0 16.5495 0.994849 15.5547 2.22206 15.5547H23.7779C25.0052 15.5547 26 16.5495 26 17.7767C26 19.004 25.0052 19.9988 23.7779 19.9988H2.22205C0.994847 19.9988 0 19.004 0 17.7767Z" fill="#054D67"/>
</svg>
