<svg width="20" height="20" viewBox="0 0 20 20" fill="none" xmlns="http://www.w3.org/2000/svg">
<g clip-path="url(#clip0_4884_3941)">
<path d="M7.59926 0.291934L7.82371 1.20109C6.93909 1.41972 6.09243 1.77026 5.31217 2.24093L4.83202 1.4369C5.69087 0.916793 6.62401 0.530699 7.59926 0.291934ZM12.4007 0.291934L12.1763 1.20109C13.0609 1.41972 13.9076 1.77026 14.6878 2.24093L15.1737 1.4369C14.3126 0.91725 13.3776 0.531204 12.4007 0.291934ZM1.43689 4.82918C0.917267 5.68929 0.531214 6.62329 0.291923 7.59926L1.20108 7.82371C1.41971 6.9391 1.77025 6.09243 2.24092 5.31217L1.43689 4.82918ZM0.936855 10C0.936786 9.54539 0.970977 9.09142 1.03914 8.64195L0.112933 8.4999C-0.0376442 9.49335 -0.0376442 10.5038 0.112933 11.4973L1.03914 11.358C0.971083 10.9086 0.936894 10.4546 0.936855 10ZM15.168 18.5603L14.6878 17.7591C13.9088 18.2302 13.063 18.5808 12.1791 18.7989L12.4036 19.7081C13.3776 19.467 14.3096 19.08 15.168 18.5603ZM19.0631 10C19.0631 10.4546 19.0289 10.9086 18.9609 11.358L19.8871 11.4973C20.0376 10.5038 20.0376 9.49335 19.8871 8.4999L18.9609 8.64195C19.029 9.09142 19.0632 9.54539 19.0631 10ZM19.7081 12.3979L18.7989 12.1734C18.5808 13.0591 18.2302 13.9068 17.7591 14.6878L18.5631 15.1708C19.0832 14.3099 19.4693 13.3749 19.7081 12.3979ZM11.3581 18.9609C10.4578 19.0972 9.54218 19.0972 8.64195 18.9609L8.50273 19.8871C9.49523 20.0376 10.5048 20.0376 11.4973 19.8871L11.3581 18.9609ZM17.296 15.3754C16.756 16.1077 16.1085 16.7542 15.3754 17.2931L15.9322 18.0489C16.7397 17.4544 17.454 16.743 18.0517 15.9379L17.296 15.3754ZM15.3754 2.70403C16.1085 3.24399 16.756 3.89147 17.296 4.62462L18.0517 4.06208C17.4562 3.25629 16.7437 2.54386 15.9379 1.9483L15.3754 2.70403ZM2.70403 4.62462C3.24398 3.89147 3.89147 3.24399 4.62462 2.70403L4.06208 1.9483C3.25629 2.54386 2.54385 3.25629 1.94829 4.06208L2.70403 4.62462ZM18.5631 4.82918L17.7591 5.31217C18.2302 6.0912 18.5808 6.937 18.7989 7.82087L19.7081 7.59642C19.4688 6.62135 19.0827 5.68829 18.5631 4.82918ZM8.64195 1.03915C9.54218 0.902756 10.4578 0.902756 11.3581 1.03915L11.4973 0.112944C10.5048 -0.0376482 9.49523 -0.0376482 8.50273 0.112944L8.64195 1.03915ZM3.18417 18.2989L1.24938 18.7478L1.70111 16.813L0.789117 16.5999L0.33738 18.5347C0.309116 18.6546 0.304778 18.779 0.324616 18.9006C0.344453 19.0223 0.388077 19.1388 0.45299 19.2436C0.517904 19.3483 0.602835 19.4392 0.702924 19.5111C0.803013 19.5831 0.916296 19.6345 1.03629 19.6626C1.17663 19.6939 1.32212 19.6939 1.46246 19.6626L3.39726 19.2166L3.18417 18.2989ZM0.982313 15.7646L1.89715 15.9748L2.20967 14.6338C1.75329 13.8683 1.41336 13.0391 1.20108 12.1734L0.291923 12.3979C0.496421 13.2265 0.805756 14.0256 1.21244 14.7759L0.982313 15.7646ZM5.35762 17.7932L4.01662 18.1057L4.2297 19.0205L5.21557 18.7904C5.96532 19.1983 6.76459 19.5077 7.59358 19.7109L7.81803 18.8018C6.9551 18.5867 6.12882 18.2449 5.36615 17.7875L5.35762 17.7932ZM10 1.87443C5.51104 1.87727 1.87726 5.51673 1.87726 10.0028C1.87974 11.5308 2.31194 13.0273 3.12451 14.3213L2.3432 17.6568L5.67583 16.8755C9.47439 19.2649 14.4918 18.1256 16.8812 14.3298C19.2705 10.5341 18.1341 5.51673 14.3384 3.12452C13.0389 2.30736 11.535 1.87402 10 1.87443Z" fill="#3541F6"/>
</g>
<defs>
<clipPath id="clip0_4884_3941">
<rect width="20" height="20" fill="white"/>
</clipPath>
</defs>
</svg>
