<svg width="245" height="77" viewBox="0 0 245 77" fill="none" xmlns="http://www.w3.org/2000/svg">
<rect width="245" height="77" rx="10" fill="black"/>
<g clip-path="url(#clip0_4878_4190)">
<path d="M35 19C32.2386 19 30 21.2386 30 24V53C30 55.7614 32.2386 58 35 58H64C66.7614 58 69 55.7614 69 53V24C69 21.2386 66.7614 19 64 19H35Z" fill="#3A76F0"/>
<path d="M46.2818 25.4851L46.5826 26.7038C45.3968 26.9969 44.2618 27.4668 43.2158 28.0978L42.5722 27.02C43.7235 26.3227 44.9744 25.8052 46.2818 25.4851ZM52.7183 25.4851L52.4174 26.7038C53.6033 26.9969 54.7382 27.4668 55.7842 28.0978L56.4355 27.02C55.2811 26.3234 54.0278 25.8058 52.7183 25.4851ZM38.0209 31.5674C37.3244 32.7204 36.8068 33.9725 36.4861 35.2808L37.7048 35.5817C37.9979 34.3958 38.4678 33.2608 39.0988 32.2149L38.0209 31.5674ZM37.3506 38.4991C37.3505 37.8896 37.3963 37.2811 37.4877 36.6786L36.2461 36.4881C36.0443 37.8199 36.0443 39.1744 36.2461 40.5062L37.4877 40.3196C37.3965 39.717 37.3507 39.1085 37.3506 38.4991ZM56.4279 49.9744L55.7842 48.9003C54.7399 49.5319 53.6061 50.0018 52.4212 50.2943L52.7221 51.513C54.0279 51.1899 55.2772 50.6711 56.4279 49.9744ZM61.6494 38.4991C61.6494 39.1085 61.6036 39.717 61.5123 40.3196L62.7539 40.5062C62.9558 39.1744 62.9558 37.8199 62.7539 36.4881L61.5123 36.6786C61.6037 37.2811 61.6495 37.8896 61.6494 38.4991ZM62.514 41.7135L61.2952 41.4126C61.0029 42.5999 60.5329 43.7363 59.9013 44.7832L60.9791 45.4307C61.6764 44.2767 62.1939 43.0233 62.514 41.7135ZM51.3205 50.5114C50.1137 50.6942 48.8863 50.6942 47.6795 50.5114L47.4929 51.753C48.8234 51.9548 50.1767 51.9548 51.5072 51.753L51.3205 50.5114ZM59.2805 45.7049C58.5566 46.6866 57.6886 47.5533 56.7059 48.2757L57.4524 49.2888C58.5348 48.492 59.4924 47.5382 60.2936 46.459L59.2805 45.7049ZM56.7059 28.7186C57.6887 29.4424 58.5567 30.3104 59.2805 31.2932L60.2936 30.5391C59.4952 29.4589 58.5402 28.5039 57.46 27.7055L56.7059 28.7186ZM39.7196 31.2932C40.4434 30.3104 41.3114 29.4424 42.2942 28.7186L41.5401 27.7055C40.4599 28.5039 39.5048 29.4589 38.7065 30.5391L39.7196 31.2932ZM60.9791 31.5674L59.9013 32.2149C60.5328 33.2592 61.0028 34.393 61.2952 35.5779L62.514 35.277C62.1932 33.9699 61.6757 32.7191 60.9791 31.5674ZM47.6795 26.4868C48.8863 26.3039 50.1137 26.3039 51.3205 26.4868L51.5072 25.2452C50.1767 25.0433 48.8234 25.0433 47.4929 25.2452L47.6795 26.4868ZM40.3632 49.624L37.7696 50.2257L38.3751 47.6321L37.1526 47.3464L36.547 49.9401C36.5091 50.1009 36.5033 50.2676 36.5299 50.4306C36.5565 50.5937 36.615 50.7499 36.702 50.8903C36.789 51.0308 36.9028 51.1527 37.037 51.2491C37.1712 51.3454 37.323 51.4144 37.4839 51.4521C37.672 51.494 37.8671 51.494 38.0552 51.4521L40.6489 50.8541L40.3632 49.624ZM37.4115 46.2267L38.6379 46.5085L39.0569 44.7109C38.4451 43.6846 37.9894 42.573 37.7048 41.4126L36.4861 41.7135C36.7602 42.8243 37.1749 43.8955 37.72 44.9013L37.4115 46.2267ZM43.2768 48.946L41.4791 49.365L41.7648 50.5913L43.0864 50.2829C44.0914 50.8297 45.1629 51.2444 46.2741 51.5168L46.575 50.2981C45.4182 50.0098 44.3106 49.5516 43.2882 48.9384L43.2768 48.946ZM49.5 27.6065C43.4824 27.6103 38.6113 32.4891 38.6113 38.5029C38.6146 40.5512 39.194 42.5573 40.2832 44.2919L39.2359 48.7632L43.7033 47.7159C48.7954 50.9189 55.5214 49.3916 58.7244 44.3034C61.9275 39.2151 60.404 32.4891 55.3157 29.2823C53.5738 28.1868 51.5578 27.6059 49.5 27.6065Z" fill="white"/>
</g>
<path d="M98.737 26H96.709L95.136 19.682H95.11L93.563 26H91.496L89.039 16.718H91.08L92.549 23.036H92.575L94.187 16.718H96.098L97.684 23.114H97.71L99.231 16.718H101.233L98.737 26ZM103.876 18.239H102.03V16.718H103.876V18.239ZM102.03 19.279H103.876V26H102.03V19.279ZM105.33 19.279H107.085V20.215H107.124C107.358 19.825 107.661 19.5433 108.034 19.37C108.407 19.188 108.788 19.097 109.178 19.097C109.672 19.097 110.075 19.1663 110.387 19.305C110.708 19.435 110.959 19.6213 111.141 19.864C111.323 20.098 111.449 20.3883 111.518 20.735C111.596 21.073 111.635 21.45 111.635 21.866V26H109.789V22.204C109.789 21.6493 109.702 21.2377 109.529 20.969C109.356 20.6917 109.048 20.553 108.606 20.553C108.103 20.553 107.739 20.7047 107.514 21.008C107.289 21.3027 107.176 21.7923 107.176 22.477V26H105.33V19.279ZM117.807 22.62C117.807 22.3427 117.781 22.0783 117.729 21.827C117.677 21.567 117.586 21.3417 117.456 21.151C117.335 20.9517 117.174 20.7913 116.975 20.67C116.776 20.5487 116.524 20.488 116.221 20.488C115.918 20.488 115.662 20.5487 115.454 20.67C115.246 20.7913 115.077 20.9517 114.947 21.151C114.826 21.3503 114.735 21.58 114.674 21.84C114.622 22.0913 114.596 22.3557 114.596 22.633C114.596 22.893 114.626 23.153 114.687 23.413C114.748 23.673 114.843 23.907 114.973 24.115C115.112 24.3143 115.281 24.479 115.48 24.609C115.688 24.7303 115.935 24.791 116.221 24.791C116.524 24.791 116.776 24.7303 116.975 24.609C117.183 24.4877 117.348 24.3273 117.469 24.128C117.59 23.92 117.677 23.686 117.729 23.426C117.781 23.166 117.807 22.8973 117.807 22.62ZM117.833 25.142H117.807C117.59 25.506 117.304 25.7703 116.949 25.935C116.602 26.091 116.208 26.169 115.766 26.169C115.263 26.169 114.821 26.0737 114.44 25.883C114.059 25.6837 113.742 25.4193 113.491 25.09C113.248 24.752 113.062 24.3663 112.932 23.933C112.811 23.4997 112.75 23.049 112.75 22.581C112.75 22.1303 112.811 21.697 112.932 21.281C113.062 20.8563 113.248 20.4837 113.491 20.163C113.742 19.8423 114.054 19.5867 114.427 19.396C114.8 19.1967 115.233 19.097 115.727 19.097C116.126 19.097 116.503 19.1837 116.858 19.357C117.222 19.5217 117.508 19.7687 117.716 20.098H117.742V16.718H119.588V26H117.833V25.142ZM122.621 22.646C122.621 22.9147 122.647 23.179 122.699 23.439C122.751 23.6903 122.838 23.92 122.959 24.128C123.089 24.3273 123.258 24.4877 123.466 24.609C123.674 24.7303 123.934 24.791 124.246 24.791C124.558 24.791 124.818 24.7303 125.026 24.609C125.243 24.4877 125.412 24.3273 125.533 24.128C125.663 23.92 125.754 23.6903 125.806 23.439C125.858 23.179 125.884 22.9147 125.884 22.646C125.884 22.3773 125.858 22.113 125.806 21.853C125.754 21.593 125.663 21.3633 125.533 21.164C125.412 20.9647 125.243 20.8043 125.026 20.683C124.818 20.553 124.558 20.488 124.246 20.488C123.934 20.488 123.674 20.553 123.466 20.683C123.258 20.8043 123.089 20.9647 122.959 21.164C122.838 21.3633 122.751 21.593 122.699 21.853C122.647 22.113 122.621 22.3773 122.621 22.646ZM120.775 22.646C120.775 22.1087 120.858 21.6233 121.022 21.19C121.187 20.748 121.421 20.3753 121.724 20.072C122.028 19.76 122.392 19.5217 122.816 19.357C123.241 19.1837 123.718 19.097 124.246 19.097C124.775 19.097 125.252 19.1837 125.676 19.357C126.11 19.5217 126.478 19.76 126.781 20.072C127.085 20.3753 127.319 20.748 127.483 21.19C127.648 21.6233 127.73 22.1087 127.73 22.646C127.73 23.1833 127.648 23.6687 127.483 24.102C127.319 24.5353 127.085 24.908 126.781 25.22C126.478 25.5233 126.11 25.7573 125.676 25.922C125.252 26.0867 124.775 26.169 124.246 26.169C123.718 26.169 123.241 26.0867 122.816 25.922C122.392 25.7573 122.028 25.5233 121.724 25.22C121.421 24.908 121.187 24.5353 121.022 24.102C120.858 23.6687 120.775 23.1833 120.775 22.646ZM136.614 26H134.716L133.52 21.489H133.494L132.35 26H130.439L128.307 19.279H130.257L131.492 23.842H131.518L132.636 19.279H134.43L135.574 23.829H135.6L136.835 19.279H138.733L136.614 26ZM140.948 23.816C140.948 24.0153 140.987 24.1887 141.065 24.336C141.152 24.4747 141.26 24.5917 141.39 24.687C141.52 24.7737 141.668 24.8387 141.832 24.882C142.006 24.9253 142.183 24.947 142.365 24.947C142.495 24.947 142.63 24.934 142.768 24.908C142.916 24.8733 143.046 24.8257 143.158 24.765C143.28 24.6957 143.379 24.609 143.457 24.505C143.535 24.3923 143.574 24.2537 143.574 24.089C143.574 23.8117 143.388 23.6037 143.015 23.465C142.651 23.3263 142.14 23.1877 141.481 23.049C141.213 22.9883 140.948 22.919 140.688 22.841C140.437 22.7543 140.212 22.646 140.012 22.516C139.813 22.3773 139.653 22.2083 139.531 22.009C139.41 21.801 139.349 21.5497 139.349 21.255C139.349 20.8217 139.432 20.4663 139.596 20.189C139.77 19.9117 139.995 19.695 140.272 19.539C140.55 19.3743 140.862 19.2617 141.208 19.201C141.555 19.1317 141.91 19.097 142.274 19.097C142.638 19.097 142.989 19.1317 143.327 19.201C143.674 19.2703 143.982 19.3873 144.25 19.552C144.519 19.7167 144.74 19.9377 144.913 20.215C145.095 20.4837 145.204 20.826 145.238 21.242H143.483C143.457 20.8867 143.323 20.6483 143.08 20.527C142.838 20.397 142.552 20.332 142.222 20.332C142.118 20.332 142.006 20.3407 141.884 20.358C141.763 20.3667 141.65 20.3927 141.546 20.436C141.451 20.4793 141.369 20.5443 141.299 20.631C141.23 20.709 141.195 20.8173 141.195 20.956C141.195 21.1207 141.256 21.255 141.377 21.359C141.499 21.463 141.655 21.5497 141.845 21.619C142.045 21.6797 142.27 21.736 142.521 21.788C142.773 21.84 143.028 21.8963 143.288 21.957C143.557 22.0177 143.817 22.0913 144.068 22.178C144.328 22.2647 144.558 22.3817 144.757 22.529C144.957 22.6677 145.117 22.8453 145.238 23.062C145.36 23.27 145.42 23.53 145.42 23.842C145.42 24.284 145.329 24.6567 145.147 24.96C144.974 25.2547 144.744 25.493 144.458 25.675C144.172 25.857 143.843 25.9827 143.47 26.052C143.106 26.13 142.734 26.169 142.352 26.169C141.962 26.169 141.581 26.13 141.208 26.052C140.836 25.974 140.502 25.844 140.207 25.662C139.921 25.48 139.683 25.2417 139.492 24.947C139.31 24.6437 139.211 24.2667 139.193 23.816H140.948ZM146.592 23.998H148.633V26C148.633 26.2947 148.576 26.5633 148.464 26.806C148.36 27.0573 148.217 27.274 148.035 27.456C147.853 27.638 147.636 27.7853 147.385 27.898C147.142 28.0193 146.882 28.1017 146.605 28.145V27.209C146.735 27.183 146.856 27.131 146.969 27.053C147.09 26.975 147.194 26.8797 147.281 26.767C147.367 26.663 147.432 26.5417 147.476 26.403C147.519 26.273 147.536 26.1387 147.528 26H146.592V23.998ZM153.932 16.718H156.805L158.976 23.101H159.002L161.056 16.718H163.929V26H162.018V19.422H161.992L159.717 26H158.144L155.869 19.487H155.843V26H153.932V16.718ZM165.453 21.346C165.479 20.9127 165.587 20.553 165.778 20.267C165.969 19.981 166.211 19.7513 166.506 19.578C166.801 19.4047 167.13 19.2833 167.494 19.214C167.867 19.136 168.239 19.097 168.612 19.097C168.95 19.097 169.292 19.123 169.639 19.175C169.986 19.2183 170.302 19.3093 170.588 19.448C170.874 19.5867 171.108 19.7817 171.29 20.033C171.472 20.2757 171.563 20.6007 171.563 21.008V24.505C171.563 24.8083 171.58 25.0987 171.615 25.376C171.65 25.6533 171.71 25.8613 171.797 26H169.925C169.89 25.896 169.86 25.792 169.834 25.688C169.817 25.5753 169.804 25.4627 169.795 25.35C169.5 25.6533 169.154 25.8657 168.755 25.987C168.356 26.1083 167.949 26.169 167.533 26.169C167.212 26.169 166.913 26.13 166.636 26.052C166.359 25.974 166.116 25.8527 165.908 25.688C165.7 25.5233 165.535 25.3153 165.414 25.064C165.301 24.8127 165.245 24.5137 165.245 24.167C165.245 23.7857 165.31 23.4737 165.44 23.231C165.579 22.9797 165.752 22.7803 165.96 22.633C166.177 22.4857 166.419 22.3773 166.688 22.308C166.965 22.23 167.243 22.1693 167.52 22.126C167.797 22.0827 168.07 22.048 168.339 22.022C168.608 21.996 168.846 21.957 169.054 21.905C169.262 21.853 169.427 21.7793 169.548 21.684C169.669 21.58 169.726 21.4327 169.717 21.242C169.717 21.0427 169.682 20.8867 169.613 20.774C169.552 20.6527 169.466 20.5617 169.353 20.501C169.249 20.4317 169.123 20.3883 168.976 20.371C168.837 20.345 168.686 20.332 168.521 20.332C168.157 20.332 167.871 20.41 167.663 20.566C167.455 20.722 167.334 20.982 167.299 21.346H165.453ZM169.717 22.711C169.639 22.7803 169.539 22.8367 169.418 22.88C169.305 22.9147 169.18 22.945 169.041 22.971C168.911 22.997 168.772 23.0187 168.625 23.036C168.478 23.0533 168.33 23.075 168.183 23.101C168.044 23.127 167.906 23.1617 167.767 23.205C167.637 23.2483 167.52 23.309 167.416 23.387C167.321 23.4563 167.243 23.5473 167.182 23.66C167.121 23.7727 167.091 23.9157 167.091 24.089C167.091 24.2537 167.121 24.3923 167.182 24.505C167.243 24.6177 167.325 24.7087 167.429 24.778C167.533 24.8387 167.654 24.882 167.793 24.908C167.932 24.934 168.075 24.947 168.222 24.947C168.586 24.947 168.868 24.8863 169.067 24.765C169.266 24.6437 169.414 24.5007 169.509 24.336C169.604 24.1627 169.661 23.9893 169.678 23.816C169.704 23.6427 169.717 23.504 169.717 23.4V22.711ZM177.572 21.645C177.451 20.8737 176.996 20.488 176.207 20.488C175.912 20.488 175.665 20.5573 175.466 20.696C175.267 20.826 175.102 20.9993 174.972 21.216C174.851 21.424 174.764 21.658 174.712 21.918C174.66 22.1693 174.634 22.4207 174.634 22.672C174.634 22.9147 174.66 23.1617 174.712 23.413C174.764 23.6643 174.846 23.894 174.959 24.102C175.08 24.3013 175.241 24.466 175.44 24.596C175.639 24.726 175.882 24.791 176.168 24.791C176.61 24.791 176.948 24.6697 177.182 24.427C177.425 24.1757 177.576 23.842 177.637 23.426H179.418C179.297 24.3187 178.95 24.999 178.378 25.467C177.806 25.935 177.074 26.169 176.181 26.169C175.678 26.169 175.215 26.0867 174.79 25.922C174.374 25.7487 174.019 25.5103 173.724 25.207C173.429 24.9037 173.2 24.544 173.035 24.128C172.87 23.7033 172.788 23.2397 172.788 22.737C172.788 22.217 172.862 21.736 173.009 21.294C173.165 20.8433 173.39 20.4577 173.685 20.137C173.98 19.8077 174.339 19.552 174.764 19.37C175.189 19.188 175.674 19.097 176.22 19.097C176.619 19.097 177 19.149 177.364 19.253C177.737 19.357 178.066 19.5173 178.352 19.734C178.647 19.942 178.885 20.2063 179.067 20.527C179.249 20.839 179.353 21.2117 179.379 21.645H177.572ZM180.552 23.998H182.593V26C182.593 26.2947 182.536 26.5633 182.424 26.806C182.32 27.0573 182.177 27.274 181.995 27.456C181.813 27.638 181.596 27.7853 181.345 27.898C181.102 28.0193 180.842 28.1017 180.565 28.145V27.209C180.695 27.183 180.816 27.131 180.929 27.053C181.05 26.975 181.154 26.8797 181.241 26.767C181.327 26.663 181.392 26.5417 181.436 26.403C181.479 26.273 181.496 26.1387 181.488 26H180.552V23.998ZM187.892 16.718H189.933V24.284H194.457V26H187.892V16.718ZM197.301 18.239H195.455V16.718H197.301V18.239ZM195.455 19.279H197.301V26H195.455V19.279ZM198.755 19.279H200.51V20.215H200.549C200.783 19.825 201.086 19.5433 201.459 19.37C201.831 19.188 202.213 19.097 202.603 19.097C203.097 19.097 203.5 19.1663 203.812 19.305C204.132 19.435 204.384 19.6213 204.566 19.864C204.748 20.098 204.873 20.3883 204.943 20.735C205.021 21.073 205.06 21.45 205.06 21.866V26H203.214V22.204C203.214 21.6493 203.127 21.2377 202.954 20.969C202.78 20.6917 202.473 20.553 202.031 20.553C201.528 20.553 201.164 20.7047 200.939 21.008C200.713 21.3027 200.601 21.7923 200.601 22.477V26H198.755V19.279ZM212.766 26H211.011V25.064H210.972C210.738 25.454 210.434 25.7357 210.062 25.909C209.689 26.0823 209.308 26.169 208.918 26.169C208.424 26.169 208.016 26.104 207.696 25.974C207.384 25.844 207.137 25.662 206.955 25.428C206.773 25.1853 206.643 24.895 206.565 24.557C206.495 24.2103 206.461 23.829 206.461 23.413V19.279H208.307V23.075C208.307 23.6297 208.393 24.0457 208.567 24.323C208.74 24.5917 209.048 24.726 209.49 24.726C209.992 24.726 210.356 24.5787 210.582 24.284C210.807 23.9807 210.92 23.4867 210.92 22.802V19.279H212.766V26ZM215.883 22.464L213.673 19.279H215.779L216.962 21.034L218.132 19.279H220.173L217.963 22.425L220.446 26H218.34L216.936 23.881L215.532 26H213.465L215.883 22.464Z" fill="white"/>
<path d="M92.016 54.762C92.0333 55.2473 92.146 55.6633 92.354 56.01C92.562 56.3393 92.8307 56.608 93.16 56.816C93.5067 57.0067 93.888 57.1453 94.304 57.232C94.7373 57.3187 95.1793 57.362 95.63 57.362C95.9767 57.362 96.3407 57.336 96.722 57.284C97.1033 57.232 97.45 57.1367 97.762 56.998C98.0913 56.8593 98.36 56.66 98.568 56.4C98.776 56.1227 98.88 55.776 98.88 55.36C98.88 54.788 98.6633 54.3547 98.23 54.06C97.7967 53.7653 97.2507 53.5313 96.592 53.358C95.9507 53.1673 95.2487 53.0027 94.486 52.864C93.7233 52.708 93.0127 52.5 92.354 52.24C91.7127 51.9627 91.1753 51.5813 90.742 51.096C90.3087 50.6107 90.092 49.9347 90.092 49.068C90.092 48.392 90.2393 47.8113 90.534 47.326C90.846 46.8407 91.236 46.4507 91.704 46.156C92.1893 45.844 92.7267 45.6187 93.316 45.48C93.9227 45.324 94.5207 45.246 95.11 45.246C95.8727 45.246 96.5747 45.3153 97.216 45.454C97.8573 45.5753 98.4207 45.8007 98.906 46.13C99.4087 46.442 99.8073 46.8753 100.102 47.43C100.397 47.9673 100.57 48.6433 100.622 49.458H98.412C98.3773 49.0247 98.2647 48.6693 98.074 48.392C97.8833 48.0973 97.6407 47.8633 97.346 47.69C97.0513 47.5167 96.722 47.3953 96.358 47.326C96.0113 47.2393 95.656 47.196 95.292 47.196C94.9627 47.196 94.6247 47.222 94.278 47.274C93.9487 47.326 93.6453 47.4213 93.368 47.56C93.0907 47.6813 92.8653 47.8547 92.692 48.08C92.5187 48.288 92.432 48.5653 92.432 48.912C92.432 49.2933 92.562 49.614 92.822 49.874C93.0993 50.1167 93.446 50.3247 93.862 50.498C94.278 50.654 94.746 50.7927 95.266 50.914C95.786 51.018 96.306 51.1307 96.826 51.252C97.3807 51.3733 97.918 51.5207 98.438 51.694C98.9753 51.8673 99.4433 52.1013 99.842 52.396C100.258 52.6733 100.587 53.0287 100.83 53.462C101.09 53.8953 101.22 54.4327 101.22 55.074C101.22 55.8887 101.047 56.5647 100.7 57.102C100.371 57.6393 99.9287 58.0727 99.374 58.402C98.8367 58.7313 98.2213 58.9567 97.528 59.078C96.852 59.2167 96.176 59.286 95.5 59.286C94.7547 59.286 94.044 59.208 93.368 59.052C92.692 58.896 92.094 58.6447 91.574 58.298C91.054 57.934 90.638 57.466 90.326 56.894C90.014 56.3047 89.8407 55.594 89.806 54.762H92.016ZM106.004 43.14H103.794V40.436H106.004V43.14ZM103.794 45.558H106.004V59H103.794V45.558ZM121.024 57.856C121.024 60.0573 120.521 61.704 119.516 62.796C118.51 63.888 116.933 64.434 114.784 64.434C114.16 64.434 113.518 64.3647 112.86 64.226C112.218 64.0873 111.629 63.862 111.092 63.55C110.572 63.238 110.138 62.8307 109.792 62.328C109.445 61.8253 109.254 61.21 109.22 60.482H111.43C111.447 60.8807 111.568 61.2187 111.794 61.496C112.036 61.7733 112.322 61.9987 112.652 62.172C112.998 62.3453 113.371 62.4667 113.77 62.536C114.168 62.6227 114.55 62.666 114.914 62.666C115.642 62.666 116.257 62.536 116.76 62.276C117.262 62.0333 117.678 61.6867 118.008 61.236C118.337 60.8027 118.571 60.274 118.71 59.65C118.866 59.026 118.944 58.3413 118.944 57.596V56.712H118.892C118.51 57.544 117.93 58.1593 117.15 58.558C116.387 58.9393 115.572 59.13 114.706 59.13C113.7 59.13 112.825 58.948 112.08 58.584C111.334 58.22 110.71 57.7347 110.208 57.128C109.705 56.504 109.324 55.7847 109.064 54.97C108.821 54.138 108.7 53.2627 108.7 52.344C108.7 51.5467 108.804 50.732 109.012 49.9C109.22 49.0507 109.566 48.288 110.052 47.612C110.537 46.9187 111.178 46.3553 111.976 45.922C112.773 45.4713 113.752 45.246 114.914 45.246C115.763 45.246 116.543 45.4367 117.254 45.818C117.964 46.182 118.519 46.7367 118.918 47.482H118.944V45.558H121.024V57.856ZM114.836 57.206C115.564 57.206 116.179 57.0587 116.682 56.764C117.202 56.452 117.618 56.0533 117.93 55.568C118.242 55.0653 118.467 54.502 118.606 53.878C118.762 53.254 118.84 52.63 118.84 52.006C118.84 51.4167 118.77 50.836 118.632 50.264C118.493 49.692 118.268 49.1807 117.956 48.73C117.661 48.262 117.271 47.8893 116.786 47.612C116.3 47.3347 115.711 47.196 115.018 47.196C114.307 47.196 113.7 47.3347 113.198 47.612C112.695 47.872 112.279 48.2273 111.95 48.678C111.638 49.1287 111.404 49.6487 111.248 50.238C111.109 50.8273 111.04 51.4427 111.04 52.084C111.04 52.6907 111.1 53.2973 111.222 53.904C111.343 54.5107 111.551 55.0653 111.846 55.568C112.14 56.0533 112.53 56.452 113.016 56.764C113.501 57.0587 114.108 57.206 114.836 57.206ZM124.357 45.558H126.437V47.69H126.489C127.408 46.0607 128.864 45.246 130.857 45.246C131.741 45.246 132.478 45.3673 133.067 45.61C133.657 45.8527 134.133 46.1907 134.497 46.624C134.861 47.0573 135.113 47.5773 135.251 48.184C135.407 48.7733 135.485 49.432 135.485 50.16V59H133.275V49.9C133.275 49.068 133.033 48.4093 132.547 47.924C132.062 47.4387 131.395 47.196 130.545 47.196C129.869 47.196 129.28 47.3 128.777 47.508C128.292 47.716 127.885 48.0107 127.555 48.392C127.226 48.7733 126.975 49.224 126.801 49.744C126.645 50.2467 126.567 50.8013 126.567 51.408V59H124.357V45.558ZM150.713 58.948C150.331 59.1733 149.803 59.286 149.127 59.286C148.555 59.286 148.095 59.13 147.749 58.818C147.419 58.4887 147.255 57.96 147.255 57.232C146.648 57.96 145.937 58.4887 145.123 58.818C144.325 59.13 143.459 59.286 142.523 59.286C141.916 59.286 141.335 59.2167 140.781 59.078C140.243 58.9393 139.775 58.7227 139.377 58.428C138.978 58.1333 138.657 57.752 138.415 57.284C138.189 56.7987 138.077 56.218 138.077 55.542C138.077 54.7793 138.207 54.1553 138.467 53.67C138.727 53.1847 139.065 52.7947 139.481 52.5C139.914 52.188 140.399 51.954 140.937 51.798C141.491 51.642 142.055 51.512 142.627 51.408C143.233 51.2867 143.805 51.2 144.343 51.148C144.897 51.0787 145.383 50.992 145.799 50.888C146.215 50.7667 146.544 50.602 146.787 50.394C147.029 50.1687 147.151 49.848 147.151 49.432C147.151 48.9467 147.055 48.5567 146.865 48.262C146.691 47.9673 146.457 47.742 146.163 47.586C145.885 47.43 145.565 47.326 145.201 47.274C144.854 47.222 144.507 47.196 144.161 47.196C143.225 47.196 142.445 47.378 141.821 47.742C141.197 48.0887 140.859 48.756 140.807 49.744H138.597C138.631 48.912 138.805 48.21 139.117 47.638C139.429 47.066 139.845 46.6067 140.365 46.26C140.885 45.896 141.474 45.636 142.133 45.48C142.809 45.324 143.528 45.246 144.291 45.246C144.897 45.246 145.495 45.2893 146.085 45.376C146.691 45.4627 147.237 45.6447 147.723 45.922C148.208 46.182 148.598 46.5547 148.893 47.04C149.187 47.5253 149.335 48.158 149.335 48.938V55.854C149.335 56.374 149.361 56.7553 149.413 56.998C149.482 57.2407 149.69 57.362 150.037 57.362C150.227 57.362 150.453 57.3187 150.713 57.232V58.948ZM147.125 52.058C146.847 52.266 146.483 52.422 146.033 52.526C145.582 52.6127 145.105 52.6907 144.603 52.76C144.117 52.812 143.623 52.8813 143.121 52.968C142.618 53.0373 142.167 53.1587 141.769 53.332C141.37 53.5053 141.041 53.7567 140.781 54.086C140.538 54.398 140.417 54.8313 140.417 55.386C140.417 55.75 140.486 56.062 140.625 56.322C140.781 56.5647 140.971 56.764 141.197 56.92C141.439 57.076 141.717 57.1887 142.029 57.258C142.341 57.3273 142.67 57.362 143.017 57.362C143.745 57.362 144.369 57.2667 144.889 57.076C145.409 56.868 145.833 56.6167 146.163 56.322C146.492 56.01 146.735 55.6807 146.891 55.334C147.047 54.97 147.125 54.632 147.125 54.32V52.058ZM152.899 40.436H155.109V59H152.899V40.436ZM159.027 56.114H161.913V59H159.027V56.114ZM167.381 52.292C167.381 53.1067 167.485 53.8347 167.693 54.476C167.919 55.1 168.222 55.6287 168.603 56.062C168.985 56.478 169.427 56.7987 169.929 57.024C170.449 57.2493 170.995 57.362 171.567 57.362C172.139 57.362 172.677 57.2493 173.179 57.024C173.699 56.7987 174.15 56.478 174.531 56.062C174.913 55.6287 175.207 55.1 175.415 54.476C175.641 53.8347 175.753 53.1067 175.753 52.292C175.753 51.4773 175.641 50.758 175.415 50.134C175.207 49.4927 174.913 48.9553 174.531 48.522C174.15 48.0887 173.699 47.7593 173.179 47.534C172.677 47.3087 172.139 47.196 171.567 47.196C170.995 47.196 170.449 47.3087 169.929 47.534C169.427 47.7593 168.985 48.0887 168.603 48.522C168.222 48.9553 167.919 49.4927 167.693 50.134C167.485 50.758 167.381 51.4773 167.381 52.292ZM165.041 52.292C165.041 51.304 165.18 50.3853 165.457 49.536C165.735 48.6693 166.151 47.924 166.705 47.3C167.26 46.6587 167.945 46.156 168.759 45.792C169.574 45.428 170.51 45.246 171.567 45.246C172.642 45.246 173.578 45.428 174.375 45.792C175.19 46.156 175.875 46.6587 176.429 47.3C176.984 47.924 177.4 48.6693 177.677 49.536C177.955 50.3853 178.093 51.304 178.093 52.292C178.093 53.28 177.955 54.1987 177.677 55.048C177.4 55.8973 176.984 56.6427 176.429 57.284C175.875 57.908 175.19 58.402 174.375 58.766C173.578 59.1127 172.642 59.286 171.567 59.286C170.51 59.286 169.574 59.1127 168.759 58.766C167.945 58.402 167.26 57.908 166.705 57.284C166.151 56.6427 165.735 55.8973 165.457 55.048C165.18 54.1987 165.041 53.28 165.041 52.292ZM180.621 45.558H182.701V48.392H182.753C183.29 47.3 183.949 46.494 184.729 45.974C185.509 45.454 186.497 45.2113 187.693 45.246V47.586C186.809 47.586 186.055 47.7073 185.431 47.95C184.807 48.1927 184.304 48.548 183.923 49.016C183.542 49.484 183.264 50.056 183.091 50.732C182.918 51.3907 182.831 52.1533 182.831 53.02V59H180.621V45.558ZM200.217 57.856C200.217 60.0573 199.714 61.704 198.709 62.796C197.704 63.888 196.126 64.434 193.977 64.434C193.353 64.434 192.712 64.3647 192.053 64.226C191.412 64.0873 190.822 63.862 190.285 63.55C189.765 63.238 189.332 62.8307 188.985 62.328C188.638 61.8253 188.448 61.21 188.413 60.482H190.623C190.64 60.8807 190.762 61.2187 190.987 61.496C191.23 61.7733 191.516 61.9987 191.845 62.172C192.192 62.3453 192.564 62.4667 192.963 62.536C193.362 62.6227 193.743 62.666 194.107 62.666C194.835 62.666 195.45 62.536 195.953 62.276C196.456 62.0333 196.872 61.6867 197.201 61.236C197.53 60.8027 197.764 60.274 197.903 59.65C198.059 59.026 198.137 58.3413 198.137 57.596V56.712H198.085C197.704 57.544 197.123 58.1593 196.343 58.558C195.58 58.9393 194.766 59.13 193.899 59.13C192.894 59.13 192.018 58.948 191.273 58.584C190.528 58.22 189.904 57.7347 189.401 57.128C188.898 56.504 188.517 55.7847 188.257 54.97C188.014 54.138 187.893 53.2627 187.893 52.344C187.893 51.5467 187.997 50.732 188.205 49.9C188.413 49.0507 188.76 48.288 189.245 47.612C189.73 46.9187 190.372 46.3553 191.169 45.922C191.966 45.4713 192.946 45.246 194.107 45.246C194.956 45.246 195.736 45.4367 196.447 45.818C197.158 46.182 197.712 46.7367 198.111 47.482H198.137V45.558H200.217V57.856ZM194.029 57.206C194.757 57.206 195.372 57.0587 195.875 56.764C196.395 56.452 196.811 56.0533 197.123 55.568C197.435 55.0653 197.66 54.502 197.799 53.878C197.955 53.254 198.033 52.63 198.033 52.006C198.033 51.4167 197.964 50.836 197.825 50.264C197.686 49.692 197.461 49.1807 197.149 48.73C196.854 48.262 196.464 47.8893 195.979 47.612C195.494 47.3347 194.904 47.196 194.211 47.196C193.5 47.196 192.894 47.3347 192.391 47.612C191.888 47.872 191.472 48.2273 191.143 48.678C190.831 49.1287 190.597 49.6487 190.441 50.238C190.302 50.8273 190.233 51.4427 190.233 52.084C190.233 52.6907 190.294 53.2973 190.415 53.904C190.536 54.5107 190.744 55.0653 191.039 55.568C191.334 56.0533 191.724 56.452 192.209 56.764C192.694 57.0587 193.301 57.206 194.029 57.206Z" fill="white"/>
<defs>
<clipPath id="clip0_4878_4190">
<rect width="39" height="39" fill="white" transform="translate(30 19)"/>
</clipPath>
</defs>
</svg>
