<svg width="245" height="75" viewBox="0 0 245 75" fill="none" xmlns="http://www.w3.org/2000/svg">
<rect width="245" height="75" rx="10" fill="black"/>
<g clip-path="url(#clip0_4876_4156)">
<path d="M59.1258 31.3766C54.5952 28.8426 47.3235 24.7736 36.0446 18.4582C35.2842 17.956 34.4093 17.8902 33.6533 18.1461L53.0048 37.4976L59.1258 31.3766Z" fill="#32BBFF"/>
<path d="M33.6535 18.1465C33.5119 18.1945 33.374 18.2524 33.2421 18.3223C32.4074 18.7738 31.7939 19.6427 31.7939 20.7417V54.2543C31.7939 55.3532 32.4073 56.2221 33.2421 56.6736C33.3738 56.7435 33.5115 56.8016 33.6531 56.8499L53.005 37.498L33.6535 18.1465Z" fill="#32BBFF"/>
<path d="M53.0053 37.498L33.6533 56.8499C34.4095 57.1077 35.2844 57.0469 36.045 56.5374C46.9832 50.4124 54.1729 46.3916 58.7559 43.836C58.8835 43.7643 59.0085 43.6943 59.132 43.6249L53.0053 37.498Z" fill="#32BBFF"/>
<path d="M31.7939 37.498V54.2544C31.7939 55.3533 32.4073 56.2222 33.2421 56.6737C33.3738 56.7435 33.5115 56.8016 33.6531 56.8499L53.005 37.498H31.7939Z" fill="#2C9FD9"/>
<path d="M36.0449 18.4592C35.1418 17.8629 34.077 17.8799 33.2422 18.3229L52.7114 37.7922L59.126 31.3776C54.5955 28.8435 47.3238 24.7745 36.0449 18.4592Z" fill="#29CC5E"/>
<path d="M52.7115 37.2051L33.2422 56.6743C34.077 57.1172 35.1418 57.1428 36.0449 56.538C46.983 50.413 54.1727 46.3922 58.7557 43.8366C58.8833 43.7649 59.0083 43.6949 59.1318 43.6255L52.7115 37.2051Z" fill="#D93F21"/>
<path d="M67.2065 37.4977C67.2065 36.5691 66.738 35.6321 65.8094 35.1124C65.8094 35.1124 64.0727 34.1434 58.7496 31.166L52.418 37.4977L58.7558 43.8356C64.0205 40.8795 65.8093 39.8828 65.8093 39.8828C66.738 39.3633 67.2065 38.4262 67.2065 37.4977Z" fill="#FFD500"/>
<path d="M65.8094 39.8833C66.738 39.3637 67.2065 38.4266 67.2065 37.498H52.418L58.7558 43.8359C64.0206 40.88 65.8094 39.8833 65.8094 39.8833Z" fill="#FFAA00"/>
</g>
<path d="M92.486 23.136H95.076L93.816 19.468H93.788L92.486 23.136ZM92.696 17.004H94.95L98.688 27H96.406L95.65 24.774H91.912L91.128 27H88.916L92.696 17.004ZM99.34 19.762H101.23V20.77H101.272C101.524 20.35 101.851 20.0467 102.252 19.86C102.653 19.664 103.064 19.566 103.484 19.566C104.016 19.566 104.45 19.6407 104.786 19.79C105.131 19.93 105.402 20.1307 105.598 20.392C105.794 20.644 105.929 20.9567 106.004 21.33C106.088 21.694 106.13 22.1 106.13 22.548V27H104.142V22.912C104.142 22.3147 104.049 21.8713 103.862 21.582C103.675 21.2833 103.344 21.134 102.868 21.134C102.327 21.134 101.935 21.2973 101.692 21.624C101.449 21.9413 101.328 22.4687 101.328 23.206V27H99.34V19.762ZM112.777 23.36C112.777 23.0613 112.749 22.7767 112.693 22.506C112.637 22.226 112.539 21.9833 112.399 21.778C112.268 21.5633 112.095 21.3907 111.881 21.26C111.666 21.1293 111.395 21.064 111.069 21.064C110.742 21.064 110.467 21.1293 110.243 21.26C110.019 21.3907 109.837 21.5633 109.697 21.778C109.566 21.9927 109.468 22.24 109.403 22.52C109.347 22.7907 109.319 23.0753 109.319 23.374C109.319 23.654 109.351 23.934 109.417 24.214C109.482 24.494 109.585 24.746 109.725 24.97C109.874 25.1847 110.056 25.362 110.271 25.502C110.495 25.6327 110.761 25.698 111.069 25.698C111.395 25.698 111.666 25.6327 111.881 25.502C112.105 25.3713 112.282 25.1987 112.413 24.984C112.543 24.76 112.637 24.508 112.693 24.228C112.749 23.948 112.777 23.6587 112.777 23.36ZM112.805 26.076H112.777C112.543 26.468 112.235 26.7527 111.853 26.93C111.479 27.098 111.055 27.182 110.579 27.182C110.037 27.182 109.561 27.0793 109.151 26.874C108.74 26.6593 108.399 26.3747 108.129 26.02C107.867 25.656 107.667 25.2407 107.527 24.774C107.396 24.3073 107.331 23.822 107.331 23.318C107.331 22.8327 107.396 22.366 107.527 21.918C107.667 21.4607 107.867 21.0593 108.129 20.714C108.399 20.3687 108.735 20.0933 109.137 19.888C109.538 19.6733 110.005 19.566 110.537 19.566C110.966 19.566 111.372 19.6593 111.755 19.846C112.147 20.0233 112.455 20.2893 112.679 20.644H112.707V17.004H114.695V27H112.805V26.076ZM116.197 19.762H118.087V21.106H118.115C118.209 20.882 118.335 20.6767 118.493 20.49C118.652 20.294 118.834 20.1307 119.039 20C119.245 19.86 119.464 19.7527 119.697 19.678C119.931 19.6033 120.173 19.566 120.425 19.566C120.556 19.566 120.701 19.5893 120.859 19.636V21.484C120.766 21.4653 120.654 21.4513 120.523 21.442C120.393 21.4233 120.267 21.414 120.145 21.414C119.781 21.414 119.473 21.4747 119.221 21.596C118.969 21.7173 118.764 21.8853 118.605 22.1C118.456 22.3053 118.349 22.548 118.283 22.828C118.218 23.108 118.185 23.4113 118.185 23.738V27H116.197V19.762ZM123.157 23.388C123.157 23.6773 123.185 23.962 123.241 24.242C123.297 24.5127 123.39 24.76 123.521 24.984C123.661 25.1987 123.843 25.3713 124.067 25.502C124.291 25.6327 124.571 25.698 124.907 25.698C125.243 25.698 125.523 25.6327 125.747 25.502C125.98 25.3713 126.162 25.1987 126.293 24.984C126.433 24.76 126.531 24.5127 126.587 24.242C126.643 23.962 126.671 23.6773 126.671 23.388C126.671 23.0987 126.643 22.814 126.587 22.534C126.531 22.254 126.433 22.0067 126.293 21.792C126.162 21.5773 125.98 21.4047 125.747 21.274C125.523 21.134 125.243 21.064 124.907 21.064C124.571 21.064 124.291 21.134 124.067 21.274C123.843 21.4047 123.661 21.5773 123.521 21.792C123.39 22.0067 123.297 22.254 123.241 22.534C123.185 22.814 123.157 23.0987 123.157 23.388ZM121.169 23.388C121.169 22.8093 121.257 22.2867 121.435 21.82C121.612 21.344 121.864 20.9427 122.191 20.616C122.517 20.28 122.909 20.0233 123.367 19.846C123.824 19.6593 124.337 19.566 124.907 19.566C125.476 19.566 125.989 19.6593 126.447 19.846C126.913 20.0233 127.31 20.28 127.637 20.616C127.963 20.9427 128.215 21.344 128.393 21.82C128.57 22.2867 128.659 22.8093 128.659 23.388C128.659 23.9667 128.57 24.4893 128.393 24.956C128.215 25.4227 127.963 25.824 127.637 26.16C127.31 26.4867 126.913 26.7387 126.447 26.916C125.989 27.0933 125.476 27.182 124.907 27.182C124.337 27.182 123.824 27.0933 123.367 26.916C122.909 26.7387 122.517 26.4867 122.191 26.16C121.864 25.824 121.612 25.4227 121.435 24.956C121.257 24.4893 121.169 23.9667 121.169 23.388ZM131.995 18.642H130.007V17.004H131.995V18.642ZM130.007 19.762H131.995V27H130.007V19.762ZM138.699 23.36C138.699 23.0613 138.671 22.7767 138.615 22.506C138.559 22.226 138.461 21.9833 138.321 21.778C138.19 21.5633 138.017 21.3907 137.803 21.26C137.588 21.1293 137.317 21.064 136.991 21.064C136.664 21.064 136.389 21.1293 136.165 21.26C135.941 21.3907 135.759 21.5633 135.619 21.778C135.488 21.9927 135.39 22.24 135.325 22.52C135.269 22.7907 135.241 23.0753 135.241 23.374C135.241 23.654 135.273 23.934 135.339 24.214C135.404 24.494 135.507 24.746 135.647 24.97C135.796 25.1847 135.978 25.362 136.193 25.502C136.417 25.6327 136.683 25.698 136.991 25.698C137.317 25.698 137.588 25.6327 137.803 25.502C138.027 25.3713 138.204 25.1987 138.335 24.984C138.465 24.76 138.559 24.508 138.615 24.228C138.671 23.948 138.699 23.6587 138.699 23.36ZM138.727 26.076H138.699C138.465 26.468 138.157 26.7527 137.775 26.93C137.401 27.098 136.977 27.182 136.501 27.182C135.959 27.182 135.483 27.0793 135.073 26.874C134.662 26.6593 134.321 26.3747 134.051 26.02C133.789 25.656 133.589 25.2407 133.449 24.774C133.318 24.3073 133.253 23.822 133.253 23.318C133.253 22.8327 133.318 22.366 133.449 21.918C133.589 21.4607 133.789 21.0593 134.051 20.714C134.321 20.3687 134.657 20.0933 135.059 19.888C135.46 19.6733 135.927 19.566 136.459 19.566C136.888 19.566 137.294 19.6593 137.677 19.846C138.069 20.0233 138.377 20.2893 138.601 20.644H138.629V17.004H140.617V27H138.727V26.076Z" fill="white"/>
<path d="M103.076 54.953C102.432 55.8117 101.635 56.4327 100.684 56.816C99.7333 57.184 98.775 57.368 97.809 57.368C96.5823 57.368 95.486 57.1457 94.52 56.701C93.554 56.241 92.7337 55.6277 92.059 54.861C91.3843 54.0943 90.8707 53.2127 90.518 52.216C90.1653 51.2193 89.989 50.1843 89.989 49.111C89.989 47.915 90.15 46.7803 90.472 45.707C90.8093 44.6183 91.3 43.6677 91.944 42.855C92.6033 42.0423 93.416 41.3983 94.382 40.923C95.3633 40.4323 96.5057 40.187 97.809 40.187C98.6983 40.187 99.534 40.2943 100.316 40.509C101.113 40.7083 101.819 41.0303 102.432 41.475C103.061 41.9197 103.582 42.487 103.996 43.177C104.425 43.8517 104.717 44.672 104.87 45.638H102.685C102.578 45.0093 102.378 44.4727 102.087 44.028C101.796 43.568 101.435 43.1923 101.006 42.901C100.577 42.6097 100.086 42.395 99.534 42.257C98.9973 42.1037 98.4223 42.027 97.809 42.027C96.8123 42.027 95.9537 42.2263 95.233 42.625C94.5277 43.0237 93.945 43.5527 93.485 44.212C93.0403 44.856 92.7107 45.5997 92.496 46.443C92.2813 47.271 92.174 48.122 92.174 48.996C92.174 49.8547 92.2967 50.6827 92.542 51.48C92.7873 52.262 93.1477 52.9597 93.623 53.573C94.0983 54.171 94.681 54.654 95.371 55.022C96.0763 55.3747 96.889 55.551 97.809 55.551C98.6677 55.551 99.4267 55.413 100.086 55.137C100.745 54.861 101.297 54.4853 101.742 54.01C102.202 53.5193 102.547 52.952 102.777 52.308C103.007 51.6487 103.107 50.9433 103.076 50.192H97.832V48.352H105.031V57H103.651L103.076 54.953ZM109.35 51.066C109.35 51.7867 109.442 52.4307 109.626 52.998C109.825 53.55 110.094 54.0177 110.431 54.401C110.768 54.769 111.159 55.0527 111.604 55.252C112.064 55.4513 112.547 55.551 113.053 55.551C113.559 55.551 114.034 55.4513 114.479 55.252C114.939 55.0527 115.338 54.769 115.675 54.401C116.012 54.0177 116.273 53.55 116.457 52.998C116.656 52.4307 116.756 51.7867 116.756 51.066C116.756 50.3453 116.656 49.709 116.457 49.157C116.273 48.5897 116.012 48.1143 115.675 47.731C115.338 47.3477 114.939 47.0563 114.479 46.857C114.034 46.6577 113.559 46.558 113.053 46.558C112.547 46.558 112.064 46.6577 111.604 46.857C111.159 47.0563 110.768 47.3477 110.431 47.731C110.094 48.1143 109.825 48.5897 109.626 49.157C109.442 49.709 109.35 50.3453 109.35 51.066ZM107.28 51.066C107.28 50.192 107.403 49.3793 107.648 48.628C107.893 47.8613 108.261 47.202 108.752 46.65C109.243 46.0827 109.848 45.638 110.569 45.316C111.29 44.994 112.118 44.833 113.053 44.833C114.004 44.833 114.832 44.994 115.537 45.316C116.258 45.638 116.863 46.0827 117.354 46.65C117.845 47.202 118.213 47.8613 118.458 48.628C118.703 49.3793 118.826 50.192 118.826 51.066C118.826 51.94 118.703 52.7527 118.458 53.504C118.213 54.2553 117.845 54.9147 117.354 55.482C116.863 56.034 116.258 56.471 115.537 56.793C114.832 57.0997 114.004 57.253 113.053 57.253C112.118 57.253 111.29 57.0997 110.569 56.793C109.848 56.471 109.243 56.034 108.752 55.482C108.261 54.9147 107.893 54.2553 107.648 53.504C107.403 52.7527 107.28 51.94 107.28 51.066ZM122.557 51.066C122.557 51.7867 122.649 52.4307 122.833 52.998C123.033 53.55 123.301 54.0177 123.638 54.401C123.976 54.769 124.367 55.0527 124.811 55.252C125.271 55.4513 125.754 55.551 126.26 55.551C126.766 55.551 127.242 55.4513 127.686 55.252C128.146 55.0527 128.545 54.769 128.882 54.401C129.22 54.0177 129.48 53.55 129.664 52.998C129.864 52.4307 129.963 51.7867 129.963 51.066C129.963 50.3453 129.864 49.709 129.664 49.157C129.48 48.5897 129.22 48.1143 128.882 47.731C128.545 47.3477 128.146 47.0563 127.686 46.857C127.242 46.6577 126.766 46.558 126.26 46.558C125.754 46.558 125.271 46.6577 124.811 46.857C124.367 47.0563 123.976 47.3477 123.638 47.731C123.301 48.1143 123.033 48.5897 122.833 49.157C122.649 49.709 122.557 50.3453 122.557 51.066ZM120.487 51.066C120.487 50.192 120.61 49.3793 120.855 48.628C121.101 47.8613 121.469 47.202 121.959 46.65C122.45 46.0827 123.056 45.638 123.776 45.316C124.497 44.994 125.325 44.833 126.26 44.833C127.211 44.833 128.039 44.994 128.744 45.316C129.465 45.638 130.071 46.0827 130.561 46.65C131.052 47.202 131.42 47.8613 131.665 48.628C131.911 49.3793 132.033 50.192 132.033 51.066C132.033 51.94 131.911 52.7527 131.665 53.504C131.42 54.2553 131.052 54.9147 130.561 55.482C130.071 56.034 129.465 56.471 128.744 56.793C128.039 57.0997 127.211 57.253 126.26 57.253C125.325 57.253 124.497 57.0997 123.776 56.793C123.056 56.471 122.45 56.034 121.959 55.482C121.469 54.9147 121.101 54.2553 120.855 53.504C120.61 52.7527 120.487 51.94 120.487 51.066ZM144.596 55.988C144.596 57.9353 144.152 59.392 143.262 60.358C142.373 61.324 140.978 61.807 139.076 61.807C138.524 61.807 137.957 61.7457 137.374 61.623C136.807 61.5003 136.286 61.301 135.81 61.025C135.35 60.749 134.967 60.3887 134.66 59.944C134.354 59.4993 134.185 58.955 134.154 58.311H136.109C136.125 58.6637 136.232 58.9627 136.431 59.208C136.646 59.4533 136.899 59.6527 137.19 59.806C137.497 59.9593 137.827 60.0667 138.179 60.128C138.532 60.2047 138.869 60.243 139.191 60.243C139.835 60.243 140.38 60.128 140.824 59.898C141.269 59.6833 141.637 59.3767 141.928 58.978C142.22 58.5947 142.427 58.127 142.549 57.575C142.687 57.023 142.756 56.4173 142.756 55.758V54.976H142.71C142.373 55.712 141.859 56.2563 141.169 56.609C140.495 56.9463 139.774 57.115 139.007 57.115C138.118 57.115 137.344 56.954 136.684 56.632C136.025 56.31 135.473 55.8807 135.028 55.344C134.584 54.792 134.246 54.1557 134.016 53.435C133.802 52.699 133.694 51.9247 133.694 51.112C133.694 50.4067 133.786 49.686 133.97 48.95C134.154 48.1987 134.461 47.524 134.89 46.926C135.32 46.3127 135.887 45.8143 136.592 45.431C137.298 45.0323 138.164 44.833 139.191 44.833C139.943 44.833 140.633 45.0017 141.261 45.339C141.89 45.661 142.381 46.1517 142.733 46.811H142.756V45.109H144.596V55.988ZM139.122 55.413C139.766 55.413 140.311 55.2827 140.755 55.022C141.215 54.746 141.583 54.3933 141.859 53.964C142.135 53.5193 142.335 53.021 142.457 52.469C142.595 51.917 142.664 51.365 142.664 50.813C142.664 50.2917 142.603 49.778 142.48 49.272C142.358 48.766 142.158 48.3137 141.882 47.915C141.622 47.501 141.277 47.1713 140.847 46.926C140.418 46.6807 139.897 46.558 139.283 46.558C138.655 46.558 138.118 46.6807 137.673 46.926C137.229 47.156 136.861 47.4703 136.569 47.869C136.293 48.2677 136.086 48.7277 135.948 49.249C135.826 49.7703 135.764 50.3147 135.764 50.882C135.764 51.4187 135.818 51.9553 135.925 52.492C136.033 53.0287 136.217 53.5193 136.477 53.964C136.738 54.3933 137.083 54.746 137.512 55.022C137.942 55.2827 138.478 55.413 139.122 55.413ZM147.66 40.578H149.615V57H147.66V40.578ZM160.901 49.916C160.87 49.456 160.763 49.019 160.579 48.605C160.41 48.191 160.173 47.8383 159.866 47.547C159.575 47.2403 159.222 47.0027 158.808 46.834C158.409 46.65 157.965 46.558 157.474 46.558C156.968 46.558 156.508 46.65 156.094 46.834C155.695 47.0027 155.35 47.2403 155.059 47.547C154.768 47.8537 154.538 48.214 154.369 48.628C154.2 49.0267 154.101 49.456 154.07 49.916H160.901ZM162.787 53.228C162.526 54.562 161.951 55.5663 161.062 56.241C160.173 56.9157 159.053 57.253 157.704 57.253C156.753 57.253 155.925 57.0997 155.22 56.793C154.53 56.4863 153.947 56.057 153.472 55.505C152.997 54.953 152.636 54.2937 152.391 53.527C152.161 52.7603 152.031 51.9247 152 51.02C152 50.1153 152.138 49.2873 152.414 48.536C152.69 47.7847 153.073 47.133 153.564 46.581C154.07 46.029 154.66 45.5997 155.335 45.293C156.025 44.9863 156.776 44.833 157.589 44.833C158.647 44.833 159.521 45.0553 160.211 45.5C160.916 45.9293 161.476 46.4813 161.89 47.156C162.319 47.8307 162.611 48.5667 162.764 49.364C162.933 50.1613 163.002 50.9203 162.971 51.641H154.07C154.055 52.1623 154.116 52.6607 154.254 53.136C154.392 53.596 154.614 54.01 154.921 54.378C155.228 54.7307 155.619 55.0143 156.094 55.229C156.569 55.4437 157.129 55.551 157.773 55.551C158.601 55.551 159.276 55.3593 159.797 54.976C160.334 54.5927 160.686 54.01 160.855 53.228H162.787ZM173.906 48.444H178.184C179.426 48.4593 180.33 48.2063 180.898 47.685C181.48 47.1637 181.772 46.4123 181.772 45.431C181.772 44.4497 181.48 43.706 180.898 43.2C180.33 42.6787 179.426 42.418 178.184 42.418H173.906V48.444ZM171.721 40.578H178.92C180.576 40.578 181.825 41.0073 182.669 41.866C183.527 42.7093 183.957 43.8977 183.957 45.431C183.957 46.9643 183.527 48.1603 182.669 49.019C181.825 49.8777 180.576 50.2993 178.92 50.284H173.906V57H171.721V40.578ZM186.428 40.578H188.383V57H186.428V40.578ZM201.945 56.954C201.608 57.1533 201.14 57.253 200.542 57.253C200.036 57.253 199.63 57.115 199.323 56.839C199.032 56.5477 198.886 56.08 198.886 55.436C198.35 56.08 197.721 56.5477 197 56.839C196.295 57.115 195.528 57.253 194.7 57.253C194.164 57.253 193.65 57.1917 193.159 57.069C192.684 56.9463 192.27 56.7547 191.917 56.494C191.565 56.2333 191.281 55.896 191.066 55.482C190.867 55.0527 190.767 54.539 190.767 53.941C190.767 53.2663 190.882 52.7143 191.112 52.285C191.342 51.8557 191.641 51.5107 192.009 51.25C192.393 50.974 192.822 50.767 193.297 50.629C193.788 50.491 194.286 50.376 194.792 50.284C195.329 50.1767 195.835 50.1 196.31 50.054C196.801 49.9927 197.23 49.916 197.598 49.824C197.966 49.7167 198.258 49.571 198.472 49.387C198.687 49.1877 198.794 48.904 198.794 48.536C198.794 48.1067 198.71 47.7617 198.541 47.501C198.388 47.2403 198.181 47.041 197.92 46.903C197.675 46.765 197.391 46.673 197.069 46.627C196.763 46.581 196.456 46.558 196.149 46.558C195.321 46.558 194.631 46.719 194.079 47.041C193.527 47.3477 193.228 47.938 193.182 48.812H191.227C191.258 48.076 191.411 47.455 191.687 46.949C191.963 46.443 192.331 46.0367 192.791 45.73C193.251 45.408 193.773 45.178 194.355 45.04C194.953 44.902 195.59 44.833 196.264 44.833C196.801 44.833 197.33 44.8713 197.851 44.948C198.388 45.0247 198.871 45.1857 199.3 45.431C199.73 45.661 200.075 45.9907 200.335 46.42C200.596 46.8493 200.726 47.409 200.726 48.099V54.217C200.726 54.677 200.749 55.0143 200.795 55.229C200.857 55.4437 201.041 55.551 201.347 55.551C201.516 55.551 201.715 55.5127 201.945 55.436V56.954ZM198.771 50.859C198.526 51.043 198.204 51.181 197.805 51.273C197.407 51.3497 196.985 51.4187 196.54 51.48C196.111 51.526 195.674 51.5873 195.229 51.664C194.785 51.7253 194.386 51.8327 194.033 51.986C193.681 52.1393 193.389 52.3617 193.159 52.653C192.945 52.929 192.837 53.3123 192.837 53.803C192.837 54.125 192.899 54.401 193.021 54.631C193.159 54.8457 193.328 55.022 193.527 55.16C193.742 55.298 193.987 55.3977 194.263 55.459C194.539 55.5203 194.831 55.551 195.137 55.551C195.781 55.551 196.333 55.4667 196.793 55.298C197.253 55.114 197.629 54.8917 197.92 54.631C198.212 54.355 198.426 54.0637 198.564 53.757C198.702 53.435 198.771 53.136 198.771 52.86V50.859ZM208.434 58.587C208.204 59.1697 207.974 59.6603 207.744 60.059C207.529 60.4577 207.284 60.7797 207.008 61.025C206.747 61.2857 206.448 61.4697 206.111 61.577C205.789 61.6997 205.413 61.761 204.984 61.761C204.754 61.761 204.524 61.7457 204.294 61.715C204.064 61.6843 203.842 61.6307 203.627 61.554V59.76C203.796 59.8367 203.987 59.898 204.202 59.944C204.432 60.0053 204.624 60.036 204.777 60.036C205.176 60.036 205.505 59.9363 205.766 59.737C206.042 59.553 206.249 59.2847 206.387 58.932L207.192 56.931L202.477 45.109H204.685L208.158 54.838H208.204L211.539 45.109H213.609L208.434 58.587Z" fill="white"/>
<defs>
<clipPath id="clip0_4876_4156">
<rect width="39" height="39" fill="white" transform="translate(30 18)"/>
</clipPath>
</defs>
</svg>
