<svg width="20" height="20" viewBox="0 0 20 20" fill="none" xmlns="http://www.w3.org/2000/svg">
<g clip-path="url(#clip0_4884_3941)">
<path d="M5 0C2.23858 0 0 2.23858 0 5V15C0 17.7614 2.23858 20 5 20H15C17.7614 20 20 17.7614 20 15V5C20 2.23858 17.7614 0 15 0H5Z" fill="#3A76F0"/>
<path d="M8.3501 3.32569L8.50439 3.95069C7.89626 4.10099 7.31422 4.34197 6.77783 4.66553L6.44775 4.1128C7.03817 3.75525 7.67966 3.48983 8.3501 3.32569ZM11.6509 3.32569L11.4966 3.95069C12.1047 4.10099 12.6868 4.34197 13.2231 4.66553L13.5571 4.1128C12.9652 3.75557 12.3224 3.49018 11.6509 3.32569ZM4.11377 6.44483C3.75655 7.03611 3.49116 7.67819 3.32666 8.34913L3.95166 8.50343C4.10196 7.8953 4.34294 7.31325 4.6665 6.77686L4.11377 6.44483ZM3.77002 9.99952C3.76997 9.687 3.79348 9.37492 3.84033 9.06593L3.20361 8.96827C3.1001 9.65122 3.1001 10.3459 3.20361 11.0288L3.84033 10.9331C3.79355 10.6241 3.77004 10.312 3.77002 9.99952ZM13.5532 15.8843L13.2231 15.3335C12.6876 15.6574 12.1062 15.8984 11.4985 16.0483L11.6528 16.6733C12.3224 16.5076 12.9632 16.2416 13.5532 15.8843ZM16.231 9.99952C16.2309 10.312 16.2074 10.6241 16.1606 10.9331L16.7974 11.0288C16.9009 10.3459 16.9009 9.65122 16.7974 8.96827L16.1606 9.06593C16.2075 9.37492 16.231 9.687 16.231 9.99952ZM16.6743 11.648L16.0493 11.4937C15.8994 12.1025 15.6584 12.6853 15.3345 13.2222L15.8872 13.5542C16.2448 12.9624 16.5102 12.3196 16.6743 11.648ZM10.9341 16.1597C10.3152 16.2534 9.68576 16.2534 9.06689 16.1597L8.97119 16.7964C9.65348 16.8999 10.3475 16.8999 11.0298 16.7964L10.9341 16.1597ZM15.0161 13.6948C14.6449 14.1982 14.1998 14.6427 13.6958 15.0132L14.0786 15.5327C14.6337 15.1241 15.1248 14.635 15.5356 14.0815L15.0161 13.6948ZM13.6958 4.98389C14.1998 5.35509 14.6449 5.8002 15.0161 6.30421L15.5356 5.91749C15.1262 5.36355 14.6365 4.87378 14.0825 4.46436L13.6958 4.98389ZM4.98486 6.30421C5.35606 5.8002 5.80117 5.35509 6.30517 4.98389L5.91846 4.46436C5.36451 4.87378 4.87475 5.36355 4.46533 5.91749L4.98486 6.30421ZM15.8872 6.44483L15.3345 6.77686C15.6583 7.31241 15.8993 7.89385 16.0493 8.50147L16.6743 8.34718C16.5098 7.67686 16.2444 7.03543 15.8872 6.44483ZM9.06689 3.83936C9.68576 3.7456 10.3152 3.7456 10.9341 3.83936L11.0298 3.20264C10.3475 3.09912 9.65348 3.09912 8.97119 3.20264L9.06689 3.83936ZM5.31494 15.7046L3.98486 16.0132L4.29541 14.6831L3.66846 14.5366L3.35791 15.8667C3.33848 15.9492 3.3355 16.0347 3.34913 16.1183C3.36277 16.2019 3.39276 16.282 3.43739 16.354C3.48201 16.426 3.5404 16.4885 3.6092 16.538C3.67801 16.5874 3.75589 16.6228 3.83838 16.6421C3.93485 16.6636 4.03487 16.6636 4.13135 16.6421L5.46142 16.3355L5.31494 15.7046ZM3.80127 13.9624L4.43017 14.1069L4.64502 13.1851C4.33127 12.6588 4.0976 12.0887 3.95166 11.4937L3.32666 11.648C3.46724 12.2176 3.67989 12.7669 3.95947 13.2827L3.80127 13.9624ZM6.80908 15.3569L5.88721 15.5718L6.03369 16.2007L6.71142 16.0425C7.22684 16.3229 7.7763 16.5356 8.34619 16.6753L8.50049 16.0503C7.90727 15.9025 7.33924 15.6675 6.81494 15.353L6.80908 15.3569ZM10.0005 4.41358C6.91455 4.41553 4.4165 6.91749 4.4165 10.0015C4.4182 11.0519 4.71532 12.0806 5.27392 12.9702L4.73682 15.2632L7.02783 14.7261C9.63916 16.3687 13.0884 15.5855 14.731 12.9761C16.3735 10.3667 15.5923 6.91749 12.9829 5.27296C12.0896 4.7112 11.0557 4.4133 10.0005 4.41358Z" fill="white"/>
</g>
<defs>
<clipPath id="clip0_4884_3941">
<rect width="20" height="20" fill="white"/>
</clipPath>
</defs>
</svg>
