<svg width="245" height="78" viewBox="0 0 245 78" fill="none" xmlns="http://www.w3.org/2000/svg">
<rect width="245" height="78" rx="10" fill="black"/>
<path d="M67.7545 31.5239C67.4766 31.7354 62.5711 34.4476 62.5711 40.4783C62.5711 47.4538 68.8132 49.9215 69 49.9826C68.9713 50.1331 68.0084 53.3623 65.7089 56.6526C63.6585 59.5481 61.5171 62.4389 58.2596 62.4389C55.002 62.4389 54.1636 60.5822 50.403 60.5822C46.7382 60.5822 45.4352 62.5 42.4555 62.5C39.4757 62.5 37.3966 59.8207 35.0061 56.5304C32.2372 52.6666 30 46.6641 30 40.9671C30 31.8294 36.0553 26.9832 42.0147 26.9832C45.1813 26.9832 47.8209 29.0233 49.809 29.0233C51.7013 29.0233 54.6523 26.861 58.2548 26.861C59.6201 26.861 64.5256 26.9832 67.7545 31.5239ZM56.5445 22.9925C58.0344 21.2581 59.0883 18.8514 59.0883 16.4448C59.0883 16.1111 59.0596 15.7726 58.9973 15.5C56.5733 15.5893 53.6894 17.0841 51.9504 19.063C50.5851 20.5859 49.3108 22.9925 49.3108 25.4321C49.3108 25.7987 49.3731 26.1654 49.4018 26.2829C49.5551 26.3111 49.8042 26.344 50.0533 26.344C52.2282 26.344 54.9636 24.915 56.5445 22.9925Z" fill="white"/>
<path d="M91.8 18.642H89.812V17.004H91.8V18.642ZM89.812 19.762H91.8V27H89.812V19.762ZM95.7734 21.708H97.4814C97.7334 21.708 97.976 21.6893 98.2094 21.652C98.4427 21.6147 98.648 21.5447 98.8254 21.442C99.0027 21.33 99.1427 21.176 99.2454 20.98C99.3574 20.784 99.4134 20.5273 99.4134 20.21C99.4134 19.8927 99.3574 19.636 99.2454 19.44C99.1427 19.244 99.0027 19.0947 98.8254 18.992C98.648 18.88 98.4427 18.8053 98.2094 18.768C97.976 18.7307 97.7334 18.712 97.4814 18.712H95.7734V21.708ZM93.5754 17.004H98.0834C98.7087 17.004 99.2407 17.0973 99.6794 17.284C100.118 17.4613 100.473 17.6993 100.743 17.998C101.023 18.2967 101.224 18.6373 101.345 19.02C101.476 19.4027 101.541 19.7993 101.541 20.21C101.541 20.6113 101.476 21.008 101.345 21.4C101.224 21.7827 101.023 22.1233 100.743 22.422C100.473 22.7207 100.118 22.9633 99.6794 23.15C99.2407 23.3273 98.7087 23.416 98.0834 23.416H95.7734V27H93.5754V17.004ZM102.703 17.004H104.691V20.77H104.733C104.985 20.35 105.307 20.0467 105.699 19.86C106.091 19.664 106.474 19.566 106.847 19.566C107.379 19.566 107.813 19.6407 108.149 19.79C108.495 19.93 108.765 20.1307 108.961 20.392C109.157 20.644 109.293 20.9567 109.367 21.33C109.451 21.694 109.493 22.1 109.493 22.548V27H107.505V22.912C107.505 22.3147 107.412 21.8713 107.225 21.582C107.039 21.2833 106.707 21.134 106.231 21.134C105.69 21.134 105.298 21.2973 105.055 21.624C104.813 21.9413 104.691 22.4687 104.691 23.206V27H102.703V17.004ZM112.766 23.388C112.766 23.6773 112.794 23.962 112.85 24.242C112.906 24.5127 112.999 24.76 113.13 24.984C113.27 25.1987 113.452 25.3713 113.676 25.502C113.9 25.6327 114.18 25.698 114.516 25.698C114.852 25.698 115.132 25.6327 115.356 25.502C115.589 25.3713 115.771 25.1987 115.902 24.984C116.042 24.76 116.14 24.5127 116.196 24.242C116.252 23.962 116.28 23.6773 116.28 23.388C116.28 23.0987 116.252 22.814 116.196 22.534C116.14 22.254 116.042 22.0067 115.902 21.792C115.771 21.5773 115.589 21.4047 115.356 21.274C115.132 21.134 114.852 21.064 114.516 21.064C114.18 21.064 113.9 21.134 113.676 21.274C113.452 21.4047 113.27 21.5773 113.13 21.792C112.999 22.0067 112.906 22.254 112.85 22.534C112.794 22.814 112.766 23.0987 112.766 23.388ZM110.778 23.388C110.778 22.8093 110.867 22.2867 111.044 21.82C111.221 21.344 111.473 20.9427 111.8 20.616C112.127 20.28 112.519 20.0233 112.976 19.846C113.433 19.6593 113.947 19.566 114.516 19.566C115.085 19.566 115.599 19.6593 116.056 19.846C116.523 20.0233 116.919 20.28 117.246 20.616C117.573 20.9427 117.825 21.344 118.002 21.82C118.179 22.2867 118.268 22.8093 118.268 23.388C118.268 23.9667 118.179 24.4893 118.002 24.956C117.825 25.4227 117.573 25.824 117.246 26.16C116.919 26.4867 116.523 26.7387 116.056 26.916C115.599 27.0933 115.085 27.182 114.516 27.182C113.947 27.182 113.433 27.0933 112.976 26.916C112.519 26.7387 112.127 26.4867 111.8 26.16C111.473 25.824 111.221 25.4227 111.044 24.956C110.867 24.4893 110.778 23.9667 110.778 23.388ZM119.561 19.762H121.451V20.77H121.493C121.745 20.35 122.071 20.0467 122.473 19.86C122.874 19.664 123.285 19.566 123.705 19.566C124.237 19.566 124.671 19.6407 125.007 19.79C125.352 19.93 125.623 20.1307 125.819 20.392C126.015 20.644 126.15 20.9567 126.225 21.33C126.309 21.694 126.351 22.1 126.351 22.548V27H124.363V22.912C124.363 22.3147 124.269 21.8713 124.083 21.582C123.896 21.2833 123.565 21.134 123.089 21.134C122.547 21.134 122.155 21.2973 121.913 21.624C121.67 21.9413 121.549 22.4687 121.549 23.206V27H119.561V19.762ZM132.732 22.604C132.638 22.1 132.47 21.7173 132.228 21.456C131.994 21.1947 131.635 21.064 131.15 21.064C130.832 21.064 130.566 21.12 130.352 21.232C130.146 21.3347 129.978 21.4653 129.848 21.624C129.726 21.7827 129.638 21.9507 129.582 22.128C129.535 22.3053 129.507 22.464 129.498 22.604H132.732ZM129.498 23.864C129.526 24.508 129.689 24.9747 129.988 25.264C130.286 25.5533 130.716 25.698 131.276 25.698C131.677 25.698 132.022 25.6 132.312 25.404C132.601 25.1987 132.778 24.984 132.844 24.76H134.594C134.314 25.628 133.884 26.2487 133.306 26.622C132.727 26.9953 132.027 27.182 131.206 27.182C130.636 27.182 130.123 27.0933 129.666 26.916C129.208 26.7293 128.821 26.468 128.504 26.132C128.186 25.796 127.939 25.3947 127.762 24.928C127.594 24.4613 127.51 23.948 127.51 23.388C127.51 22.8467 127.598 22.3427 127.776 21.876C127.953 21.4093 128.205 21.008 128.532 20.672C128.858 20.3267 129.246 20.056 129.694 19.86C130.151 19.664 130.655 19.566 131.206 19.566C131.822 19.566 132.358 19.6873 132.816 19.93C133.273 20.1633 133.646 20.4807 133.936 20.882C134.234 21.2833 134.449 21.7407 134.58 22.254C134.71 22.7673 134.757 23.304 134.72 23.864H129.498ZM135.997 24.844H138.195V27C138.195 27.3173 138.134 27.6067 138.013 27.868C137.901 28.1387 137.747 28.372 137.551 28.568C137.355 28.764 137.121 28.9227 136.851 29.044C136.589 29.1747 136.309 29.2633 136.011 29.31V28.302C136.151 28.274 136.281 28.218 136.403 28.134C136.533 28.05 136.645 27.9473 136.739 27.826C136.832 27.714 136.902 27.5833 136.949 27.434C136.995 27.294 137.014 27.1493 137.005 27H135.997V24.844ZM145.736 18.642H143.748V17.004H145.736V18.642ZM143.748 19.762H145.736V27H143.748V19.762ZM149.709 21.708H151.417C151.669 21.708 151.912 21.6893 152.145 21.652C152.378 21.6147 152.584 21.5447 152.761 21.442C152.938 21.33 153.078 21.176 153.181 20.98C153.293 20.784 153.349 20.5273 153.349 20.21C153.349 19.8927 153.293 19.636 153.181 19.44C153.078 19.244 152.938 19.0947 152.761 18.992C152.584 18.88 152.378 18.8053 152.145 18.768C151.912 18.7307 151.669 18.712 151.417 18.712H149.709V21.708ZM147.511 17.004H152.019C152.644 17.004 153.176 17.0973 153.615 17.284C154.054 17.4613 154.408 17.6993 154.679 17.998C154.959 18.2967 155.16 18.6373 155.281 19.02C155.412 19.4027 155.477 19.7993 155.477 20.21C155.477 20.6113 155.412 21.008 155.281 21.4C155.16 21.7827 154.959 22.1233 154.679 22.422C154.408 22.7207 154.054 22.9633 153.615 23.15C153.176 23.3273 152.644 23.416 152.019 23.416H149.709V27H147.511V17.004ZM156.555 21.988C156.583 21.5213 156.699 21.134 156.905 20.826C157.11 20.518 157.371 20.2707 157.689 20.084C158.006 19.8973 158.361 19.7667 158.753 19.692C159.154 19.608 159.555 19.566 159.957 19.566C160.321 19.566 160.689 19.594 161.063 19.65C161.436 19.6967 161.777 19.7947 162.085 19.944C162.393 20.0933 162.645 20.3033 162.841 20.574C163.037 20.8353 163.135 21.1853 163.135 21.624V25.39C163.135 25.7167 163.153 26.0293 163.191 26.328C163.228 26.6267 163.293 26.8507 163.387 27H161.371C161.333 26.888 161.301 26.776 161.273 26.664C161.254 26.5427 161.24 26.4213 161.231 26.3C160.913 26.6267 160.54 26.8553 160.111 26.986C159.681 27.1167 159.243 27.182 158.795 27.182C158.449 27.182 158.127 27.14 157.829 27.056C157.53 26.972 157.269 26.8413 157.045 26.664C156.821 26.4867 156.643 26.2627 156.513 25.992C156.391 25.7213 156.331 25.3993 156.331 25.026C156.331 24.6153 156.401 24.2793 156.541 24.018C156.69 23.7473 156.877 23.5327 157.101 23.374C157.334 23.2153 157.595 23.0987 157.885 23.024C158.183 22.94 158.482 22.8747 158.781 22.828C159.079 22.7813 159.373 22.744 159.663 22.716C159.952 22.688 160.209 22.646 160.433 22.59C160.657 22.534 160.834 22.4547 160.965 22.352C161.095 22.24 161.156 22.0813 161.147 21.876C161.147 21.6613 161.109 21.4933 161.035 21.372C160.969 21.2413 160.876 21.1433 160.755 21.078C160.643 21.0033 160.507 20.9567 160.349 20.938C160.199 20.91 160.036 20.896 159.859 20.896C159.467 20.896 159.159 20.98 158.935 21.148C158.711 21.316 158.58 21.596 158.543 21.988H156.555ZM161.147 23.458C161.063 23.5327 160.955 23.5933 160.825 23.64C160.703 23.6773 160.568 23.71 160.419 23.738C160.279 23.766 160.129 23.7893 159.971 23.808C159.812 23.8267 159.653 23.85 159.495 23.878C159.345 23.906 159.196 23.9433 159.047 23.99C158.907 24.0367 158.781 24.102 158.669 24.186C158.566 24.2607 158.482 24.3587 158.417 24.48C158.351 24.6013 158.319 24.7553 158.319 24.942C158.319 25.1193 158.351 25.2687 158.417 25.39C158.482 25.5113 158.571 25.6093 158.683 25.684C158.795 25.7493 158.925 25.796 159.075 25.824C159.224 25.852 159.378 25.866 159.537 25.866C159.929 25.866 160.232 25.8007 160.447 25.67C160.661 25.5393 160.82 25.3853 160.923 25.208C161.025 25.0213 161.086 24.8347 161.105 24.648C161.133 24.4613 161.147 24.312 161.147 24.2V23.458ZM169.816 23.36C169.816 23.0613 169.788 22.7767 169.732 22.506C169.676 22.226 169.578 21.9833 169.438 21.778C169.307 21.5633 169.135 21.3907 168.92 21.26C168.705 21.1293 168.435 21.064 168.108 21.064C167.781 21.064 167.506 21.1293 167.282 21.26C167.058 21.3907 166.876 21.5633 166.736 21.778C166.605 21.9927 166.507 22.24 166.442 22.52C166.386 22.7907 166.358 23.0753 166.358 23.374C166.358 23.654 166.391 23.934 166.456 24.214C166.521 24.494 166.624 24.746 166.764 24.97C166.913 25.1847 167.095 25.362 167.31 25.502C167.534 25.6327 167.8 25.698 168.108 25.698C168.435 25.698 168.705 25.6327 168.92 25.502C169.144 25.3713 169.321 25.1987 169.452 24.984C169.583 24.76 169.676 24.508 169.732 24.228C169.788 23.948 169.816 23.6587 169.816 23.36ZM169.844 26.076H169.816C169.583 26.468 169.275 26.7527 168.892 26.93C168.519 27.098 168.094 27.182 167.618 27.182C167.077 27.182 166.601 27.0793 166.19 26.874C165.779 26.6593 165.439 26.3747 165.168 26.02C164.907 25.656 164.706 25.2407 164.566 24.774C164.435 24.3073 164.37 23.822 164.37 23.318C164.37 22.8327 164.435 22.366 164.566 21.918C164.706 21.4607 164.907 21.0593 165.168 20.714C165.439 20.3687 165.775 20.0933 166.176 19.888C166.577 19.6733 167.044 19.566 167.576 19.566C168.005 19.566 168.411 19.6593 168.794 19.846C169.186 20.0233 169.494 20.2893 169.718 20.644H169.746V17.004H171.734V27H169.844V26.076Z" fill="white"/>
<path d="M95.474 52.824H100.284L97.944 46.012H97.892L95.474 52.824ZM95.864 41.436H100.05L106.992 60H102.754L101.35 55.866H94.408L92.952 60H88.844L95.864 41.436ZM114.989 57.582C115.595 57.582 116.098 57.4607 116.497 57.218C116.913 56.9753 117.242 56.6633 117.485 56.282C117.745 55.8833 117.927 55.424 118.031 54.904C118.135 54.384 118.187 53.8553 118.187 53.318C118.187 52.7807 118.126 52.252 118.005 51.732C117.901 51.212 117.719 50.7527 117.459 50.354C117.199 49.938 116.861 49.6087 116.445 49.366C116.046 49.106 115.552 48.976 114.963 48.976C114.356 48.976 113.845 49.106 113.429 49.366C113.03 49.6087 112.701 49.9293 112.441 50.328C112.198 50.7267 112.025 51.186 111.921 51.706C111.817 52.226 111.765 52.7633 111.765 53.318C111.765 53.8553 111.817 54.384 111.921 54.904C112.042 55.424 112.224 55.8833 112.467 56.282C112.727 56.6633 113.065 56.9753 113.481 57.218C113.897 57.4607 114.399 57.582 114.989 57.582ZM108.203 46.558H111.713V48.274H111.765C112.215 47.546 112.787 47.0173 113.481 46.688C114.174 46.3587 114.937 46.194 115.769 46.194C116.826 46.194 117.736 46.3933 118.499 46.792C119.261 47.1907 119.894 47.7193 120.397 48.378C120.899 49.0367 121.272 49.808 121.515 50.692C121.757 51.5587 121.879 52.4687 121.879 53.422C121.879 54.3233 121.757 55.19 121.515 56.022C121.272 56.854 120.899 57.5907 120.397 58.232C119.911 58.8733 119.296 59.3847 118.551 59.766C117.823 60.1473 116.965 60.338 115.977 60.338C115.145 60.338 114.373 60.1733 113.663 59.844C112.969 59.4973 112.397 58.9947 111.947 58.336H111.895V64.706H108.203V46.558ZM130.883 57.582C131.49 57.582 131.993 57.4607 132.391 57.218C132.807 56.9753 133.137 56.6633 133.379 56.282C133.639 55.8833 133.821 55.424 133.925 54.904C134.029 54.384 134.081 53.8553 134.081 53.318C134.081 52.7807 134.021 52.252 133.899 51.732C133.795 51.212 133.613 50.7527 133.353 50.354C133.093 49.938 132.755 49.6087 132.339 49.366C131.941 49.106 131.447 48.976 130.857 48.976C130.251 48.976 129.739 49.106 129.323 49.366C128.925 49.6087 128.595 49.9293 128.335 50.328C128.093 50.7267 127.919 51.186 127.815 51.706C127.711 52.226 127.659 52.7633 127.659 53.318C127.659 53.8553 127.711 54.384 127.815 54.904C127.937 55.424 128.119 55.8833 128.361 56.282C128.621 56.6633 128.959 56.9753 129.375 57.218C129.791 57.4607 130.294 57.582 130.883 57.582ZM124.097 46.558H127.607V48.274H127.659C128.11 47.546 128.682 47.0173 129.375 46.688C130.069 46.3587 130.831 46.194 131.663 46.194C132.721 46.194 133.631 46.3933 134.393 46.792C135.156 47.1907 135.789 47.7193 136.291 48.378C136.794 49.0367 137.167 49.808 137.409 50.692C137.652 51.5587 137.773 52.4687 137.773 53.422C137.773 54.3233 137.652 55.19 137.409 56.022C137.167 56.854 136.794 57.5907 136.291 58.232C135.806 58.8733 135.191 59.3847 134.445 59.766C133.717 60.1473 132.859 60.338 131.871 60.338C131.039 60.338 130.268 60.1733 129.557 59.844C128.864 59.4973 128.292 58.9947 127.841 58.336H127.789V64.706H124.097V46.558ZM150.4 53.838C150.4 54.462 150.513 54.9907 150.738 55.424C150.964 55.8573 151.258 56.2127 151.622 56.49C152.004 56.75 152.446 56.9493 152.948 57.088C153.451 57.2093 153.971 57.27 154.508 57.27C154.872 57.27 155.262 57.244 155.678 57.192C156.094 57.1227 156.484 57.0013 156.848 56.828C157.212 56.6547 157.516 56.4207 157.758 56.126C158.001 55.814 158.122 55.424 158.122 54.956C158.122 54.4533 157.958 54.046 157.628 53.734C157.316 53.422 156.9 53.162 156.38 52.954C155.86 52.746 155.271 52.564 154.612 52.408C153.954 52.252 153.286 52.0787 152.61 51.888C151.917 51.7147 151.241 51.5067 150.582 51.264C149.924 51.004 149.334 50.6747 148.814 50.276C148.294 49.8773 147.87 49.3833 147.54 48.794C147.228 48.1873 147.072 47.4593 147.072 46.61C147.072 45.6567 147.272 44.8333 147.67 44.14C148.086 43.4293 148.624 42.84 149.282 42.372C149.941 41.904 150.686 41.5573 151.518 41.332C152.35 41.1067 153.182 40.994 154.014 40.994C154.985 40.994 155.912 41.1067 156.796 41.332C157.698 41.54 158.495 41.8867 159.188 42.372C159.882 42.8573 160.428 43.4813 160.826 44.244C161.242 44.9893 161.45 45.8993 161.45 46.974H157.498C157.464 46.4193 157.342 45.96 157.134 45.596C156.944 45.232 156.684 44.946 156.354 44.738C156.025 44.53 155.644 44.3827 155.21 44.296C154.794 44.2093 154.335 44.166 153.832 44.166C153.503 44.166 153.174 44.2007 152.844 44.27C152.515 44.3393 152.212 44.4607 151.934 44.634C151.674 44.8073 151.458 45.024 151.284 45.284C151.111 45.544 151.024 45.8733 151.024 46.272C151.024 46.636 151.094 46.9307 151.232 47.156C151.371 47.3813 151.64 47.5893 152.038 47.78C152.454 47.9707 153.018 48.1613 153.728 48.352C154.456 48.5427 155.401 48.7853 156.562 49.08C156.909 49.1493 157.386 49.2793 157.992 49.47C158.616 49.6433 159.232 49.9293 159.838 50.328C160.445 50.7267 160.965 51.264 161.398 51.94C161.849 52.5987 162.074 53.448 162.074 54.488C162.074 55.3373 161.91 56.126 161.58 56.854C161.251 57.582 160.757 58.2147 160.098 58.752C159.457 59.272 158.651 59.6793 157.68 59.974C156.727 60.2687 155.618 60.416 154.352 60.416C153.33 60.416 152.333 60.286 151.362 60.026C150.409 59.7833 149.56 59.3933 148.814 58.856C148.086 58.3187 147.506 57.634 147.072 56.802C146.639 55.97 146.431 54.982 146.448 53.838H150.4ZM168.793 46.558H171.497V49.028H168.793V55.684C168.793 56.308 168.897 56.724 169.105 56.932C169.313 57.14 169.729 57.244 170.353 57.244C170.561 57.244 170.76 57.2353 170.951 57.218C171.142 57.2007 171.324 57.1747 171.497 57.14V60C171.185 60.052 170.838 60.0867 170.457 60.104C170.076 60.1213 169.703 60.13 169.339 60.13C168.767 60.13 168.221 60.0867 167.701 60C167.198 59.9307 166.748 59.7833 166.349 59.558C165.968 59.3327 165.664 59.012 165.439 58.596C165.214 58.18 165.101 57.634 165.101 56.958V49.028H162.865V46.558H165.101V42.528H168.793V46.558ZM176.53 53.292C176.53 53.8293 176.582 54.358 176.686 54.878C176.79 55.3807 176.963 55.84 177.206 56.256C177.466 56.6547 177.804 56.9753 178.22 57.218C178.636 57.4607 179.156 57.582 179.78 57.582C180.404 57.582 180.924 57.4607 181.34 57.218C181.773 56.9753 182.111 56.6547 182.354 56.256C182.614 55.84 182.796 55.3807 182.9 54.878C183.004 54.358 183.056 53.8293 183.056 53.292C183.056 52.7547 183.004 52.226 182.9 51.706C182.796 51.186 182.614 50.7267 182.354 50.328C182.111 49.9293 181.773 49.6087 181.34 49.366C180.924 49.106 180.404 48.976 179.78 48.976C179.156 48.976 178.636 49.106 178.22 49.366C177.804 49.6087 177.466 49.9293 177.206 50.328C176.963 50.7267 176.79 51.186 176.686 51.706C176.582 52.226 176.53 52.7547 176.53 53.292ZM172.838 53.292C172.838 52.2173 173.002 51.2467 173.332 50.38C173.661 49.496 174.129 48.7507 174.736 48.144C175.342 47.52 176.07 47.0433 176.92 46.714C177.769 46.3673 178.722 46.194 179.78 46.194C180.837 46.194 181.79 46.3673 182.64 46.714C183.506 47.0433 184.243 47.52 184.85 48.144C185.456 48.7507 185.924 49.496 186.254 50.38C186.583 51.2467 186.748 52.2173 186.748 53.292C186.748 54.3667 186.583 55.3373 186.254 56.204C185.924 57.0707 185.456 57.816 184.85 58.44C184.243 59.0467 183.506 59.5147 182.64 59.844C181.79 60.1733 180.837 60.338 179.78 60.338C178.722 60.338 177.769 60.1733 176.92 59.844C176.07 59.5147 175.342 59.0467 174.736 58.44C174.129 57.816 173.661 57.0707 173.332 56.204C173.002 55.3373 172.838 54.3667 172.838 53.292ZM189.148 46.558H192.658V49.054H192.71C192.883 48.638 193.117 48.2567 193.412 47.91C193.707 47.546 194.045 47.2427 194.426 47C194.807 46.74 195.215 46.5407 195.648 46.402C196.081 46.2633 196.532 46.194 197 46.194C197.243 46.194 197.511 46.2373 197.806 46.324V49.756C197.633 49.7213 197.425 49.6953 197.182 49.678C196.939 49.6433 196.705 49.626 196.48 49.626C195.804 49.626 195.232 49.7387 194.764 49.964C194.296 50.1893 193.915 50.5013 193.62 50.9C193.343 51.2813 193.143 51.732 193.022 52.252C192.901 52.772 192.84 53.3353 192.84 53.942V60H189.148V46.558ZM207.845 51.836C207.671 50.9 207.359 50.1893 206.909 49.704C206.475 49.2187 205.808 48.976 204.907 48.976C204.317 48.976 203.823 49.08 203.425 49.288C203.043 49.4787 202.731 49.7213 202.489 50.016C202.263 50.3107 202.099 50.6227 201.995 50.952C201.908 51.2813 201.856 51.576 201.839 51.836H207.845ZM201.839 54.176C201.891 55.372 202.194 56.2387 202.749 56.776C203.303 57.3133 204.101 57.582 205.141 57.582C205.886 57.582 206.527 57.4 207.065 57.036C207.602 56.6547 207.931 56.256 208.053 55.84H211.303C210.783 57.452 209.985 58.6047 208.911 59.298C207.836 59.9913 206.536 60.338 205.011 60.338C203.953 60.338 203 60.1733 202.151 59.844C201.301 59.4973 200.582 59.012 199.993 58.388C199.403 57.764 198.944 57.0187 198.615 56.152C198.303 55.2853 198.147 54.332 198.147 53.292C198.147 52.2867 198.311 51.3507 198.641 50.484C198.97 49.6173 199.438 48.872 200.045 48.248C200.651 47.6067 201.371 47.104 202.203 46.74C203.052 46.376 203.988 46.194 205.011 46.194C206.155 46.194 207.151 46.4193 208.001 46.87C208.85 47.3033 209.543 47.8927 210.081 48.638C210.635 49.3833 211.034 50.2327 211.277 51.186C211.519 52.1393 211.606 53.136 211.537 54.176H201.839Z" fill="white"/>
</svg>
