<svg width="20" height="20" viewBox="0 0 20 20" fill="none" xmlns="http://www.w3.org/2000/svg">
<path d="M19.4245 12.1232C19.5687 11.4729 19.6454 10.7978 19.6454 10.105C19.6454 4.91053 15.3747 0.6994 10.1064 0.6994C9.55018 0.6994 9.00523 0.7468 8.47501 0.837C7.62249 0.3074 6.61386 0 5.53194 0C2.47669 0 0 2.44233 0 5.4544C0 6.46133 0.277817 7.40373 0.760363 8.2134C0.633861 8.82447 0.567399 9.45693 0.567399 10.1049C0.567399 15.2994 4.8381 19.5105 10.1064 19.5105C10.7031 19.5105 11.2868 19.4561 11.853 19.3527C12.6318 19.7654 13.5222 20 14.4681 20C17.5234 20 20 17.5579 20 14.5456C20 13.6751 19.7922 12.8531 19.4245 12.1232ZM14.9987 14.5999C14.5574 15.2156 13.9054 15.7035 13.0607 16.0498C12.2241 16.3927 11.2213 16.5665 10.0798 16.5665C8.70969 16.5665 7.56104 16.3289 6.6645 15.86C6.02361 15.5186 5.49509 15.0563 5.09395 14.4858C4.68875 13.9095 4.48321 13.3376 4.48321 12.7862C4.48321 12.4415 4.61708 12.1427 4.88117 11.8982C5.14249 11.6558 5.47737 11.533 5.87669 11.533C6.20447 11.533 6.48716 11.6301 6.71704 11.8215C6.93657 12.005 7.12501 12.2765 7.27639 12.6271C7.44542 13.0088 7.62973 13.3311 7.82438 13.585C8.01147 13.8292 8.28063 14.0345 8.62437 14.1947C8.9702 14.3561 9.43639 14.4379 10.0098 14.4379C10.7984 14.4379 11.4449 14.2719 11.9313 13.9445C12.4062 13.6247 12.6372 13.2408 12.6372 12.7709C12.6372 12.3995 12.5166 12.1077 12.2688 11.8787C12.0092 11.6393 11.6668 11.453 11.2509 11.3252C10.8174 11.1919 10.2288 11.0482 9.50082 10.8979C8.51463 10.6897 7.67631 10.4426 7.00865 10.1633C7.00608 10.1623 7.00344 10.1613 7.00087 10.1601C6.31684 9.87327 5.76553 9.47547 5.36223 8.97773C4.95257 8.47227 4.745 7.83813 4.745 7.09273C4.745 6.3822 4.96291 5.74173 5.39272 5.18927C5.81929 4.64067 6.44226 4.21433 7.24427 3.9218C8.03594 3.63313 8.97764 3.48687 10.0431 3.48687C10.895 3.48687 11.644 3.58387 12.2692 3.77553C12.8979 3.9686 13.428 4.22933 13.8445 4.55013C14.264 4.87333 14.576 5.21913 14.772 5.57827C14.97 5.941 15.0703 6.302 15.0703 6.6512C15.0703 6.98727 14.9387 7.29267 14.6791 7.55887C14.4179 7.8266 14.0883 7.96253 13.6994 7.96253C13.3461 7.96253 13.0696 7.87753 12.8778 7.70993C12.6992 7.55433 12.5141 7.31173 12.3085 6.96267C12.0706 6.51707 11.7828 6.1658 11.4525 5.91827C11.132 5.67787 10.5961 5.5558 9.85991 5.5558C9.17615 5.5558 8.62004 5.69113 8.20713 5.95807C7.80924 6.21527 7.61594 6.5102 7.61594 6.8596C7.61594 7.07393 7.67814 7.253 7.80613 7.40713C7.94169 7.5704 8.1329 7.7138 8.37461 7.833C8.62531 7.95727 8.88366 8.056 9.14248 8.12647C9.40758 8.199 9.8524 8.30647 10.4624 8.4454C11.1051 8.58147 11.7037 8.73133 12.2486 8.89173C12.358 8.92393 12.4662 8.95653 12.5711 8.9896C13.2064 9.19007 13.7553 9.43733 14.203 9.7244C14.6599 10.0178 15.0217 10.3946 15.2784 10.8444C15.5358 11.2958 15.6662 11.8532 15.6662 12.5007C15.6661 13.2757 15.4415 13.9818 14.9987 14.5999Z" fill="#20A0E3"/>
</svg>
