<svg width="436" height="587" viewBox="0 0 436 587" fill="none" xmlns="http://www.w3.org/2000/svg">
<path d="M211.794 433.253C235.431 417.001 260.853 471.321 274.902 493.138C327.35 523.263 385.21 533.295 407.584 534.546C414.72 534.944 430.999 534.545 430.999 546.789C430.999 563.041 407.584 564.599 393.313 564.599C350.854 564.599 286.497 526.44 260.853 505.605C218.929 471.544 192.839 446.284 211.794 433.253Z" fill="black"/>
<path fill-rule="evenodd" clip-rule="evenodd" d="M237.438 427.687C233.796 421.899 221.962 409.21 203.766 404.757C204.658 392.736 210.902 379.378 251.71 374.926C249.183 371.884 239.311 365.531 220.044 364.463C217.814 358.304 208.181 345.718 187.487 344.649C177.716 344.145 168.55 347.547 159.363 350.957C145.21 356.21 131.009 361.481 114.475 352.514C113.018 351.724 111.307 352.814 111.794 354.398C113.48 359.872 118.03 367.349 127.947 370.696C126.642 371.254 122.811 371.813 116.795 370.419C115.201 370.05 113.83 371.509 114.692 372.9C118.633 379.261 128.381 387.023 146.679 384.053C122.595 420.563 108.546 504.046 198.86 531.429L185.926 558.811C155.5 560.499 106 553.5 72 523C39.6721 494 20 417.5 71.9991 388C73.1658 386 74.5009 382 73 378C71.3116 373.5 68.9991 373 66.9991 373C64.9991 373 25.4991 389 7.49909 435.5C-10.5009 482 -0.773422 581.999 159.363 586.499C251.5 586.499 291.5 556 305.5 545.5C283.217 533.705 261.688 518.547 241.898 502.933C214.246 481.116 200.198 460.412 197.522 456.851C194.846 453.289 190.832 454.179 192.839 462.193C194.846 470.208 205.996 493.138 232.086 514.732C245.96 526.215 259.354 536.693 268.915 543.999C260.61 548.374 234.6 557.46 197 558.811L211.794 531.429C212.909 532.171 218.885 532.72 233.87 528.98L225.396 521.411C193.954 523.637 139.097 506.495 139.097 437.705C141.55 446.833 146.679 465.088 158.72 465.088C165.986 465.088 171.745 456.426 178.27 446.611C186.164 434.738 195.179 421.177 209.341 419.227C218.706 418.337 233.87 422.345 237.438 427.687ZM199.529 372.699C199.9 370.176 198.86 365.13 191.724 365.13C186.818 365.13 184.142 369.137 183.919 372.699C183.696 376.261 186.372 378.634 191.724 378.1C197.076 377.565 199.529 374.926 199.529 372.699Z" fill="black"/>
<path d="M319.5 503C323.167 505 332.8 509.4 342 511C361.167 490.333 392.3 430.5 365.5 354.5C326.711 244.5 228.5 182.5 239.5 87.9998C254.235 13.89 358.277 17.9879 388 53.5577C405.5 74.4999 407 102.499 391 127C390.5 133 392.4 143.5 404 137.5C412.667 125.333 430.9 96.3999 434.5 77.9999C439 54.9999 417.5 -16.5 309.5 3.99996C239.5 17.287 200.5 87.9998 206 145.5C213.987 229 288 292.5 311.5 335C328.16 365.13 363.598 442.846 319.5 503Z" fill="black"/>
</svg>
